<svg width="80" height="80" viewBox="0 0 80 80" fill="none" xmlns="http://www.w3.org/2000/svg">
<rect width="80" height="80" rx="40" fill="#167EFB"/>
<path d="M26.8141 33.4667C26.7307 33.9667 26.6641 34.4667 26.6641 35C26.6641 34.4833 26.7307 33.9667 26.8141 33.4667ZM26.6641 45C26.6641 45.5333 26.7307 46.0333 26.8141 46.5333C26.7307 46.0333 26.6641 45.5167 26.6641 45ZM33.4807 53.1833C33.9641 53.2667 34.4807 53.3333 34.9974 53.3333C34.4807 53.3333 33.9807 53.2667 33.4807 53.1833ZM33.4807 26.8167C33.9807 26.7333 34.4807 26.6667 34.9974 26.6667C34.4807 26.6667 33.9641 26.7333 33.4807 26.8167ZM46.5307 26.8167C46.0307 26.7333 45.5307 26.6667 44.9974 26.6667C45.5141 26.6667 46.0307 26.7333 46.5307 26.8167ZM53.1807 33.4667C53.2641 33.9667 53.3307 34.4833 53.3307 35C53.3307 34.4667 53.2641 33.9667 53.1807 33.4667Z" fill="white"/>
<path d="M56.6693 33.8333C56.6693 34.5333 56.1193 35.0833 55.4193 35.0833H53.3359V38.1451C53.3359 38.7011 52.7326 39.0473 52.2526 38.7667C51.5359 38.35 50.7026 38.2167 49.9026 38.4333C49.3894 38.5565 48.7693 38.2249 48.7693 37.6971V36.2333C48.7693 33.4833 46.5193 31.2333 43.7693 31.2333H36.2359C33.4859 31.2333 31.2359 33.4833 31.2359 36.2333V43.7667C31.2359 46.5167 33.4859 48.7667 36.2359 48.7667H36.9859C37.1792 48.7667 37.3359 48.9234 37.3359 49.1167C37.3359 50.7226 38.4997 52.0727 40.0318 52.383C40.3199 52.4413 40.5149 52.786 40.4193 53.0639C40.3646 53.2229 40.2196 53.3333 40.0515 53.3333H35.1026V55.4167C35.1026 56.1 34.5359 56.6667 33.8526 56.6667C33.1526 56.6667 32.6026 56.1 32.6026 55.4167V52.9667C29.9359 52.15 27.8526 50.0667 27.0526 47.4167H24.5859C23.9026 47.4167 23.3359 46.85 23.3359 46.1667C23.3359 45.4667 23.9026 44.9167 24.5859 44.9167H26.6693V41.25H24.5859C23.9026 41.25 23.3359 40.6833 23.3359 40C23.3359 39.3 23.9026 38.75 24.5859 38.75H26.6693V35.0833H24.5859C23.9026 35.0833 23.3359 34.5333 23.3359 33.8333C23.3359 33.15 23.9026 32.5833 24.5859 32.5833H27.0526C27.8526 29.9333 29.9359 27.85 32.6026 27.0333V24.5833C32.6026 23.9 33.1526 23.3333 33.8526 23.3333C34.5359 23.3333 35.1026 23.9 35.1026 24.5833V26.6667H38.7526V24.5833C38.7526 23.9 39.3193 23.3333 40.0026 23.3333C40.6859 23.3333 41.2526 23.9 41.2526 24.5833V26.6667H44.9193V24.5833C44.9193 23.9 45.4859 23.3333 46.1693 23.3333C46.8526 23.3333 47.4193 23.9 47.4193 24.5833V27.05C50.0693 27.85 52.1526 29.9333 52.9526 32.5833H55.4193C56.1193 32.5833 56.6693 33.15 56.6693 33.8333Z" fill="white"/>
<path d="M54.9833 45.8833C53.85 45.8833 53.2 45.3166 53.2 44.4833C53.2 44.15 53.3 43.7667 53.5333 43.3667C54 42.5667 53.7167 41.5333 52.9167 41.0833L51.4 40.2C50.7 39.7833 49.8 40.0333 49.3833 40.7333L49.2833 40.9C48.4833 42.2833 47.1833 42.2833 46.3833 40.9L46.2833 40.7333C45.8833 40.0333 44.9667 39.7833 44.2833 40.2L42.75 41.0833C42.2167 41.3833 41.9 41.95 41.9 42.5333C41.9 42.8167 41.9833 43.1 42.1333 43.3667C42.3667 43.7667 42.4833 44.15 42.4833 44.4833C42.4833 45.3166 41.8167 45.8833 40.6833 45.8833C39.7667 45.8833 39 46.6333 39 47.55V49.1166C39 50.0333 39.7667 50.7833 40.6833 50.7833C41.8167 50.7833 42.4833 51.35 42.4833 52.1833C42.4833 52.5167 42.3667 52.9 42.1333 53.3C41.6667 54.1 41.95 55.1333 42.75 55.5833L44.2833 56.4667C44.9667 56.8833 45.8833 56.6333 46.2833 55.9333L46.3833 55.7667C47.1833 54.3833 48.4833 54.3833 49.2833 55.7667L49.3833 55.9333C49.8 56.6333 50.7 56.8833 51.4 56.4667L52.9167 55.5833C53.45 55.2833 53.7667 54.7167 53.7667 54.1333C53.7667 53.85 53.6833 53.5666 53.5333 53.3C53.3 52.9 53.2 52.5167 53.2 52.1833C53.2 51.35 53.85 50.7833 54.9833 50.7833C55.9167 50.7833 56.6667 50.0333 56.6667 49.1166V47.55C56.6667 46.6333 55.9167 45.8833 54.9833 45.8833ZM47.8333 51.2C46.25 51.2 44.9667 49.9167 44.9667 48.3333C44.9667 46.75 46.25 45.4667 47.8333 45.4667C49.4167 45.4667 50.7 46.75 50.7 48.3333C50.7 49.9167 49.4167 51.2 47.8333 51.2Z" fill="white"/>
<path d="M47.0807 36.7V37.6542C47.0807 38.211 46.3386 38.564 45.7974 38.4333C44.9641 38.2167 44.1307 38.3333 43.4474 38.75L41.9307 39.6333C40.8807 40.2167 40.2307 41.3333 40.2307 42.5333C40.2307 42.6327 40.2348 42.7326 40.2433 42.8327C40.2978 43.4764 39.8479 44.2575 39.2629 44.5318C38.4586 44.9089 37.8272 45.5962 37.525 46.4374C37.3956 46.7975 37.0801 47.0833 36.6974 47.0833C34.5974 47.0833 32.9141 45.4 32.9141 43.3V36.7C32.9141 34.6 34.5974 32.9167 36.6974 32.9167H43.2974C45.3974 32.9167 47.0807 34.6 47.0807 36.7Z" fill="white"/>
</svg>
