<svg width="80" height="80" viewBox="0 0 80 80" fill="none" xmlns="http://www.w3.org/2000/svg">
<rect width="80" height="80" rx="40" fill="#167EFB"/>
<path d="M47.4974 28.35L44.2307 25.0833C41.8974 22.75 38.0641 22.75 35.7307 25.0833L32.4641 28.35C31.8141 29 31.8141 30.0667 32.4641 30.7167L38.8141 37.0667C39.4641 37.7167 40.5141 37.7167 41.1641 37.0667L47.5141 30.7167C48.1474 30.0667 48.1474 29 47.4974 28.35Z" fill="white"/>
<path d="M28.337 32.4833L25.0703 35.75C22.737 38.0833 22.737 41.9167 25.0703 44.25L28.337 47.5167C28.987 48.1667 30.037 48.1667 30.687 47.5167L37.037 41.1667C37.687 40.5167 37.687 39.4667 37.037 38.8167L30.7036 32.4833C30.0536 31.8333 28.987 31.8333 28.337 32.4833Z" fill="white"/>
<path d="M54.8995 35.75L51.6328 32.4833C50.9828 31.8333 49.9328 31.8333 49.2828 32.4833L42.9328 38.8333C42.2828 39.4833 42.2828 40.5333 42.9328 41.1833L49.2828 47.5333C49.9328 48.1833 50.9828 48.1833 51.6328 47.5333L54.8995 44.2667C57.2328 41.9167 57.2328 38.0833 54.8995 35.75Z" fill="white"/>
<path d="M32.4662 51.65L35.7328 54.9167C38.0662 57.25 41.8995 57.25 44.2328 54.9167L47.4995 51.65C48.1495 51 48.1495 49.95 47.4995 49.3L41.1495 42.95C40.4995 42.3 39.4495 42.3 38.7995 42.95L32.4495 49.3C31.8162 49.9333 31.8162 51 32.4662 51.65Z" fill="white"/>
</svg>
