<svg width="140" height="33" viewBox="0 0 140 33" fill="none" xmlns="http://www.w3.org/2000/svg">
<path d="M24.4191 14.5439C23.9643 15.0014 23.616 15.5537 23.3991 16.1611C23.1821 16.7687 23.1018 17.4166 23.1639 18.0587L23.1423 18.0371C23.2061 18.793 23.1041 19.5536 22.8436 20.266C22.5831 20.9784 22.1703 21.6253 21.634 22.1617C21.0976 22.698 20.4506 23.1109 19.7382 23.3713C19.0259 23.6319 18.2652 23.7339 17.5094 23.67L17.531 23.6916C16.6269 23.6075 15.7188 23.8042 14.9306 24.255C14.1424 24.7059 13.5124 25.3888 13.1266 26.2108C12.7408 27.0328 12.6178 27.9537 12.7745 28.8482C12.9313 29.7426 13.3601 30.5669 14.0025 31.2087C14.6448 31.8504 15.4695 32.2785 16.364 32.4344C17.2586 32.5904 18.1794 32.4665 19.001 32.08C19.8227 31.6934 20.505 31.0629 20.9551 30.2742C21.4053 29.4856 21.6012 28.5774 21.5163 27.6733L21.5391 27.6949C21.4752 26.9391 21.5771 26.1784 21.8376 25.466C22.0981 24.7536 22.5111 24.1067 23.0474 23.5703C23.5838 23.034 24.2307 22.6211 24.943 22.3607C25.6555 22.1002 26.416 21.9982 27.1719 22.062L27.1491 22.0404C27.8876 22.1068 28.631 21.9857 29.3104 21.6883C29.9896 21.3909 30.5829 20.9269 31.035 20.3392C31.4872 19.7516 31.7838 19.0592 31.8971 18.3265C32.0105 17.5936 31.9371 16.8441 31.6836 16.1471C31.4302 15.4502 31.0049 14.8286 30.4473 14.3399C29.8896 13.8511 29.2176 13.511 28.4935 13.3512C27.7694 13.1913 27.0167 13.2168 26.305 13.4252C25.5934 13.6338 24.946 14.0185 24.4227 14.5439H24.4191Z" fill="white"/>
<path d="M15.5649 20.862L15.5421 20.8404C16.1845 20.9051 16.8332 20.8263 17.4415 20.6095C18.0496 20.3928 18.6021 20.0437 19.0589 19.5874C19.5155 19.131 19.8651 18.5787 20.0822 17.9707C20.2994 17.3626 20.3787 16.714 20.3146 16.0715L20.3373 16.0931C20.2735 15.3372 20.3755 14.5767 20.6359 13.8642C20.8964 13.1519 21.3094 12.505 21.8457 11.9685C22.3821 11.4323 23.029 11.0193 23.7413 10.7589C24.4538 10.4983 25.2143 10.3964 25.9702 10.4602L25.9474 10.4386C26.8516 10.5236 27.7599 10.3275 28.5486 9.87714C29.3374 9.42682 29.9678 8.74417 30.3543 7.92231C30.7407 7.10046 30.8641 6.17941 30.7079 5.28478C30.5517 4.39016 30.1233 3.56553 29.481 2.92335C28.8389 2.28118 28.0142 1.85273 27.1196 1.69646C26.225 1.54018 25.304 1.66367 24.4821 2.0501C23.6602 2.43652 22.9776 3.06707 22.5273 3.85574C22.0769 4.64439 21.8808 5.55277 21.9658 6.45697L21.9442 6.43417C22.0081 7.19005 21.9064 7.95079 21.646 8.66326C21.3856 9.37574 20.9726 10.0228 20.4364 10.5592C19.8999 11.0955 19.2529 11.5085 18.5404 11.7689C17.8279 12.0293 17.0672 12.131 16.3113 12.0671L16.3329 12.0899C15.6905 12.0252 15.0417 12.104 14.4335 12.3207C13.8253 12.5374 13.2728 12.8866 12.8161 13.3429C12.3594 13.7993 12.0098 14.3515 11.7926 14.9596C11.5755 15.5676 11.4962 16.2163 11.5604 16.8587L11.5388 16.8371C11.6024 17.5929 11.5003 18.3535 11.2398 19.0658C10.9791 19.778 10.5663 20.425 10.03 20.9613C9.49371 21.4975 8.84685 21.9104 8.13457 22.171C7.42228 22.4315 6.66172 22.5336 5.90594 22.47L5.92754 22.4916C5.02335 22.4067 4.11498 22.6028 3.32631 23.0531C2.53766 23.5035 1.90711 24.1861 1.52069 25.008C1.13426 25.8299 1.01076 26.7509 1.16704 27.6455C1.32332 28.5401 1.75177 29.3648 2.39393 30.0069C3.03611 30.6491 3.86074 31.0776 4.75537 31.2338C5.64999 31.39 6.57104 31.2666 7.3929 30.8801C8.21474 30.4937 8.89739 29.8633 9.34771 29.0746C9.79808 28.2858 9.99416 27.3775 9.9092 26.4733L9.932 26.4949C9.86816 25.739 9.97016 24.9784 10.2307 24.266C10.4911 23.5537 10.904 22.9067 11.4403 22.3703C11.9767 21.834 12.6236 21.4211 13.336 21.1607C14.0484 20.9002 14.809 20.7982 15.5649 20.862Z" fill="white"/>
<path d="M7.52399 18.4535C7.97882 17.996 8.32704 17.4438 8.54381 16.8362C8.76058 16.2286 8.84055 15.5806 8.77801 14.9386L8.80079 14.9602C8.73695 14.2042 8.83891 13.4433 9.09956 12.7307C9.36022 12.0181 9.7733 11.3711 10.3099 10.8347C10.8466 10.2983 11.4938 9.88548 12.2065 9.62514C12.9191 9.36478 13.6801 9.26314 14.4361 9.32732L14.4133 9.30572C15.3171 9.3904 16.2252 9.19421 17.0135 8.74392C17.8018 8.29363 18.4319 7.61115 18.8182 6.78955C19.2044 5.96794 19.3277 5.04723 19.1715 4.15294C19.0152 3.25864 18.5868 2.43433 17.9449 1.79239C17.303 1.15045 16.4786 0.722136 15.5844 0.56587C14.6901 0.409591 13.7694 0.532977 12.9478 0.919168C12.1262 1.30536 11.4437 1.93557 10.9935 2.72387C10.5431 3.51216 10.3469 4.42017 10.4316 5.32405L10.41 5.30245C10.4739 6.05828 10.3719 6.81894 10.1113 7.53132C9.85082 8.2437 9.43804 8.89064 8.90168 9.427C8.36533 9.96337 7.71838 10.3762 7.006 10.6367C6.29362 10.8972 5.53298 10.9992 4.77715 10.9353L4.79875 10.9569C4.06022 10.8907 3.31692 11.012 2.63773 11.3095C1.95855 11.607 1.36544 12.0712 0.91338 12.6589C0.461321 13.2466 0.164941 13.939 0.0516834 14.6717C-0.0615622 15.4046 0.0119869 16.1541 0.265515 16.8508C0.519042 17.5477 0.944364 18.1692 1.50205 18.6578C2.05973 19.1466 2.73174 19.4866 3.45581 19.6464C4.17986 19.8061 4.93255 19.7806 5.64412 19.5721C6.35569 19.3636 7.0031 18.9788 7.52638 18.4535H7.52399Z" fill="white"/>
<path d="M44.7651 8.86773C45.1171 9.47574 45.5091 10.2198 45.9412 11.0998C46.3732 11.9798 46.8132 12.9078 47.2612 13.8838C47.7092 14.8438 48.1492 15.8278 48.5812 16.8359C49.0292 17.8279 49.4372 18.7479 49.8052 19.5959C50.1732 18.7479 50.5732 17.8279 51.0052 16.8359C51.4372 15.8278 51.8773 14.8438 52.3253 13.8838C52.7733 12.9078 53.2133 11.9798 53.6453 11.0998C54.0773 10.2198 54.4693 9.47574 54.8213 8.86773H57.5573C57.7013 10.0838 57.8373 11.3798 57.9653 12.7558C58.0934 14.1158 58.2054 15.5158 58.3014 16.9559C58.4134 18.3799 58.5094 19.8199 58.5894 21.2759C58.6854 22.716 58.7654 24.124 58.8294 25.5H55.8533C55.7893 23.564 55.7093 21.5719 55.6133 19.5239C55.5333 17.4759 55.4053 15.4918 55.2293 13.5718C55.0533 13.9398 54.8453 14.3798 54.6053 14.8918C54.3653 15.4038 54.1093 15.9638 53.8373 16.5719C53.5653 17.1639 53.2853 17.7799 52.9973 18.4199C52.7253 19.0599 52.4533 19.6839 52.1813 20.2919C51.9253 20.8839 51.6852 21.4439 51.4612 21.9719C51.2372 22.484 51.0452 22.924 50.8852 23.292H48.6292C48.4692 22.924 48.2772 22.476 48.0532 21.9479C47.8292 21.4199 47.5812 20.8599 47.3092 20.2679C47.0532 19.6599 46.7812 19.0359 46.4932 18.3959C46.2212 17.7559 45.9492 17.1399 45.6772 16.5479C45.4051 15.9558 45.1491 15.4038 44.9091 14.8918C44.6691 14.3638 44.4611 13.9238 44.2851 13.5718C44.1091 15.4918 43.9731 17.4759 43.8771 19.5239C43.7971 21.5719 43.7251 23.564 43.6611 25.5H40.6851C40.7491 24.124 40.8211 22.7 40.9011 21.2279C40.9971 19.7559 41.0931 18.2999 41.1891 16.8599C41.3011 15.4038 41.4211 13.9958 41.5491 12.6358C41.6771 11.2758 41.8131 10.0198 41.9571 8.86773H44.7651ZM61.5123 19.2839C61.5123 18.1799 61.6723 17.2119 61.9924 16.3799C62.3284 15.5478 62.7684 14.8598 63.3124 14.3158C63.8564 13.7558 64.4804 13.3398 65.1844 13.0678C65.8884 12.7798 66.6084 12.6358 67.3444 12.6358C69.0725 12.6358 70.4165 13.1718 71.3765 14.2438C72.3525 15.3158 72.8405 16.9159 72.8405 19.0439C72.8405 19.2039 72.8325 19.3879 72.8165 19.5959C72.8165 19.7879 72.8085 19.9639 72.7925 20.1239H64.5124C64.5924 21.1319 64.9444 21.9159 65.5684 22.476C66.2084 23.02 67.1284 23.292 68.3285 23.292C69.0325 23.292 69.6725 23.228 70.2485 23.1C70.8405 22.972 71.3045 22.836 71.6405 22.692L72.0245 25.068C71.8645 25.148 71.6405 25.236 71.3525 25.332C71.0805 25.412 70.7605 25.484 70.3925 25.548C70.0405 25.628 69.6565 25.692 69.2405 25.74C68.8245 25.788 68.4005 25.812 67.9684 25.812C66.8644 25.812 65.9044 25.652 65.0884 25.332C64.2724 24.996 63.6004 24.54 63.0724 23.964C62.5444 23.372 62.1524 22.684 61.8963 21.8999C61.6403 21.0999 61.5123 20.2279 61.5123 19.2839ZM69.9365 17.9879C69.9365 17.5879 69.8805 17.2119 69.7685 16.8599C69.6565 16.4919 69.4885 16.1799 69.2645 15.9238C69.0565 15.6518 68.7925 15.4438 68.4725 15.2998C68.1684 15.1398 67.8004 15.0598 67.3684 15.0598C66.9204 15.0598 66.5284 15.1478 66.1924 15.3238C65.8564 15.4838 65.5684 15.6998 65.3284 15.9718C65.1044 16.2439 64.9284 16.5559 64.8004 16.9079C64.6724 17.2599 64.5844 17.6199 64.5364 17.9879H69.9365ZM75.2235 19.2839C75.2235 18.1799 75.3835 17.2119 75.7035 16.3799C76.0395 15.5478 76.4795 14.8598 77.0235 14.3158C77.5675 13.7558 78.1915 13.3398 78.8956 13.0678C79.5996 12.7798 80.3196 12.6358 81.0556 12.6358C82.7836 12.6358 84.1276 13.1718 85.0877 14.2438C86.0637 15.3158 86.5517 16.9159 86.5517 19.0439C86.5517 19.2039 86.5437 19.3879 86.5277 19.5959C86.5277 19.7879 86.5197 19.9639 86.5037 20.1239H78.2235C78.3035 21.1319 78.6556 21.9159 79.2796 22.476C79.9196 23.02 80.8396 23.292 82.0396 23.292C82.7436 23.292 83.3836 23.228 83.9596 23.1C84.5516 22.972 85.0157 22.836 85.3517 22.692L85.7357 25.068C85.5757 25.148 85.3517 25.236 85.0637 25.332C84.7917 25.412 84.4716 25.484 84.1036 25.548C83.7516 25.628 83.3676 25.692 82.9516 25.74C82.5356 25.788 82.1116 25.812 81.6796 25.812C80.5756 25.812 79.6156 25.652 78.7996 25.332C77.9835 24.996 77.3115 24.54 76.7835 23.964C76.2555 23.372 75.8635 22.684 75.6075 21.8999C75.3515 21.0999 75.2235 20.2279 75.2235 19.2839ZM83.6476 17.9879C83.6476 17.5879 83.5916 17.2119 83.4796 16.8599C83.3676 16.4919 83.1996 16.1799 82.9756 15.9238C82.7676 15.6518 82.5036 15.4438 82.1836 15.2998C81.8796 15.1398 81.5116 15.0598 81.0796 15.0598C80.6316 15.0598 80.2396 15.1478 79.9036 15.3238C79.5676 15.4838 79.2796 15.6998 79.0396 15.9718C78.8156 16.2439 78.6396 16.5559 78.5116 16.9079C78.3835 17.2599 78.2955 17.6199 78.2475 17.9879H83.6476ZM89.4867 9.63575L92.3907 9.15574V12.9478H96.8548V15.3718H92.3907V20.4839C92.3907 21.4919 92.5507 22.2119 92.8707 22.644C93.1907 23.076 93.7347 23.292 94.5027 23.292C95.0308 23.292 95.4948 23.236 95.8948 23.124C96.3108 23.012 96.6388 22.908 96.8788 22.812L97.3588 25.116C97.0228 25.26 96.5828 25.404 96.0388 25.548C95.4948 25.708 94.8548 25.788 94.1187 25.788C93.2227 25.788 92.4707 25.668 91.8627 25.428C91.2707 25.188 90.7987 24.844 90.4467 24.396C90.0947 23.932 89.8467 23.38 89.7027 22.74C89.5587 22.0839 89.4867 21.3399 89.4867 20.5079V9.63575ZM104.078 23.46C104.974 23.46 105.654 23.412 106.118 23.316V20.0999C105.958 20.0519 105.726 20.0039 105.422 19.9559C105.118 19.9079 104.782 19.8839 104.414 19.8839C104.094 19.8839 103.766 19.9079 103.43 19.9559C103.11 20.0039 102.814 20.0919 102.542 20.2199C102.286 20.3479 102.078 20.5319 101.918 20.7719C101.758 20.9959 101.678 21.2839 101.678 21.6359C101.678 22.3239 101.894 22.804 102.326 23.076C102.758 23.332 103.342 23.46 104.078 23.46ZM103.838 12.6358C104.798 12.6358 105.606 12.7558 106.262 12.9958C106.918 13.2358 107.438 13.5718 107.822 14.0038C108.222 14.4358 108.502 14.9638 108.662 15.5878C108.838 16.1959 108.926 16.8679 108.926 17.6039V25.212C108.478 25.308 107.798 25.42 106.886 25.548C105.99 25.692 104.974 25.764 103.838 25.764C103.086 25.764 102.398 25.692 101.774 25.548C101.15 25.404 100.614 25.172 100.166 24.852C99.7341 24.532 99.3901 24.116 99.1341 23.604C98.8941 23.092 98.7741 22.46 98.7741 21.7079C98.7741 20.9879 98.9101 20.3799 99.1821 19.8839C99.4701 19.3879 99.8541 18.9879 100.334 18.6839C100.814 18.3639 101.366 18.1399 101.99 18.0119C102.63 17.8679 103.294 17.7959 103.982 17.7959C104.302 17.7959 104.638 17.8199 104.99 17.8679C105.342 17.8999 105.718 17.9639 106.118 18.0599V17.5799C106.118 17.2439 106.078 16.9239 105.998 16.6199C105.918 16.3159 105.774 16.0518 105.566 15.8278C105.374 15.5878 105.11 15.4038 104.774 15.2758C104.454 15.1478 104.046 15.0838 103.55 15.0838C102.878 15.0838 102.262 15.1318 101.702 15.2278C101.142 15.3238 100.686 15.4358 100.334 15.5638L99.9741 13.2118C100.342 13.0838 100.878 12.9558 101.582 12.8278C102.286 12.6998 103.038 12.6358 103.838 12.6358ZM115.627 23.412C116.395 23.412 116.955 23.324 117.307 23.148C117.659 22.956 117.835 22.636 117.835 22.1879C117.835 21.7719 117.643 21.4279 117.259 21.1559C116.891 20.8839 116.275 20.5879 115.411 20.2679C114.883 20.0759 114.395 19.8759 113.947 19.6679C113.515 19.4439 113.139 19.1879 112.819 18.8999C112.499 18.6119 112.243 18.2679 112.051 17.8679C111.875 17.4519 111.787 16.9479 111.787 16.3559C111.787 15.2038 112.211 14.2998 113.059 13.6438C113.907 12.9718 115.059 12.6358 116.515 12.6358C117.251 12.6358 117.955 12.7078 118.627 12.8518C119.299 12.9798 119.803 13.1078 120.139 13.2358L119.611 15.5878C119.291 15.4438 118.883 15.3158 118.387 15.2038C117.891 15.0758 117.315 15.0118 116.659 15.0118C116.067 15.0118 115.587 15.1158 115.219 15.3238C114.851 15.5158 114.667 15.8198 114.667 16.2359C114.667 16.4439 114.699 16.6279 114.763 16.7879C114.843 16.9479 114.971 17.0999 115.147 17.2439C115.323 17.3719 115.555 17.5079 115.843 17.6519C116.131 17.7799 116.483 17.9159 116.899 18.0599C117.587 18.3159 118.171 18.5719 118.651 18.8279C119.131 19.0679 119.523 19.3479 119.827 19.6679C120.147 19.9719 120.379 20.3239 120.523 20.7239C120.667 21.1239 120.739 21.6039 120.739 22.1639C120.739 23.364 120.291 24.276 119.395 24.9C118.515 25.508 117.251 25.812 115.603 25.812C114.499 25.812 113.611 25.716 112.939 25.524C112.267 25.348 111.795 25.204 111.523 25.092L112.027 22.668C112.459 22.844 112.971 23.012 113.563 23.172C114.171 23.332 114.859 23.412 115.627 23.412ZM126.356 17.8439C126.724 17.4599 127.116 17.0519 127.532 16.6199C127.948 16.1719 128.356 15.7318 128.756 15.2998C129.156 14.8518 129.532 14.4278 129.884 14.0278C130.252 13.6118 130.564 13.2518 130.82 12.9478H134.252C133.452 13.8438 132.604 14.7718 131.708 15.7318C130.828 16.6919 129.94 17.6279 129.044 18.5399C129.524 18.9399 130.028 19.4279 130.556 20.0039C131.084 20.5639 131.596 21.1639 132.092 21.8039C132.588 22.444 133.052 23.084 133.484 23.724C133.916 24.364 134.276 24.956 134.564 25.5H131.204C130.916 25.004 130.58 24.484 130.196 23.94C129.828 23.396 129.428 22.868 128.996 22.3559C128.564 21.8439 128.124 21.3639 127.676 20.9159C127.228 20.4519 126.788 20.0599 126.356 19.7399V25.5H123.452V7.35571L126.356 6.8757V17.8439Z" fill="white"/>
<path d="M137.53 8.34438C138.867 8.34438 139.952 7.1602 139.952 5.69953C139.952 4.23882 138.867 3.05469 137.53 3.05469C136.194 3.05469 135.109 4.23882 135.109 5.69953C135.109 7.1602 136.194 8.34438 137.53 8.34438Z" fill="white"/>
</svg>
