<svg width="80" height="80" viewBox="0 0 80 80" fill="none" xmlns="http://www.w3.org/2000/svg">
<rect width="80" height="80" rx="40" fill="#167EFB"/>
<path d="M38.337 23.3167C30.0536 23.3167 23.3203 30.05 23.3203 38.3333C23.3203 46.6167 30.0536 53.35 38.337 53.35C46.6203 53.35 53.3536 46.6167 53.3536 38.3333C53.3536 30.05 46.6203 23.3167 38.337 23.3167ZM38.337 42.0833H33.337C32.6536 42.0833 32.087 41.5167 32.087 40.8333C32.087 40.15 32.6536 39.5833 33.337 39.5833H38.337C39.0203 39.5833 39.587 40.15 39.587 40.8333C39.587 41.5167 39.0203 42.0833 38.337 42.0833ZM43.337 37.0833H33.337C32.6536 37.0833 32.087 36.5167 32.087 35.8333C32.087 35.15 32.6536 34.5833 33.337 34.5833H43.337C44.0203 34.5833 44.587 35.15 44.587 35.8333C44.587 36.5167 44.0203 37.0833 43.337 37.0833Z" fill="white"/>
<path d="M56.6533 51.5833C56.1033 50.5667 54.9367 50 53.37 50C52.1867 50 51.17 50.4833 50.57 51.3167C49.97 52.15 49.8367 53.2667 50.2033 54.3833C50.92 56.55 52.17 57.0333 52.8533 57.1167C52.9533 57.1333 53.0533 57.1333 53.17 57.1333C53.9033 57.1333 55.0367 56.8167 56.1367 55.1667C57.02 53.8833 57.1867 52.6 56.6533 51.5833Z" fill="white"/>
</svg>
