<svg width="724" height="440" viewBox="0 0 724 440" fill="none" xmlns="http://www.w3.org/2000/svg">
<g clip-path="url(#clip0_2_1021)">
<rect width="724" height="440" rx="24" fill="#FAFBFD"/>
<line x1="185.312" y1="122.752" x2="185.312" y2="998.496" stroke="#C7CBCC" stroke-width="1.92049" stroke-dasharray="7.68 7.68"/>
<path d="M49.3443 117.161C49.3443 114.042 49.891 111.64 50.9844 109.955C52.0958 108.27 53.6283 107.428 55.5821 107.428C57.5359 107.428 59.0595 108.27 60.1529 109.955C61.2642 111.64 61.8198 114.042 61.8198 117.161C61.8198 120.28 61.2642 122.682 60.1529 124.367C59.0595 126.052 57.5359 126.894 55.5821 126.894C53.6283 126.894 52.0958 126.052 50.9844 124.367C49.891 122.682 49.3443 120.28 49.3443 117.161ZM59.1849 117.161C59.1849 116.139 59.1222 115.171 58.9967 114.257C58.8892 113.343 58.692 112.545 58.4052 111.864C58.1363 111.183 57.7689 110.645 57.3028 110.251C56.8368 109.839 56.2632 109.633 55.5821 109.633C54.901 109.633 54.3274 109.839 53.8613 110.251C53.3953 110.645 53.0189 111.183 52.7321 111.864C52.4632 112.545 52.266 113.343 52.1406 114.257C52.033 115.171 51.9793 116.139 51.9793 117.161C51.9793 118.183 52.033 119.151 52.1406 120.065C52.266 120.979 52.4632 121.777 52.7321 122.458C53.0189 123.139 53.3953 123.686 53.8613 124.098C54.3274 124.492 54.901 124.689 55.5821 124.689C56.2632 124.689 56.8368 124.492 57.3028 124.098C57.7689 123.686 58.1363 123.139 58.4052 122.458C58.692 121.777 58.8892 120.979 58.9967 120.065C59.1222 119.151 59.1849 118.183 59.1849 117.161ZM76.8618 121.651C76.8618 122.404 76.7273 123.103 76.4585 123.748C76.2075 124.376 75.8221 124.931 75.3023 125.415C74.8004 125.881 74.1641 126.24 73.3934 126.491C72.6226 126.76 71.7353 126.894 70.7316 126.894C69.5665 126.894 68.5896 126.733 67.8009 126.41C67.0301 126.069 66.4118 125.648 65.9457 125.146C65.4797 124.644 65.1481 124.098 64.9509 123.506C64.7537 122.897 64.6551 122.323 64.6551 121.786C64.6551 121.266 64.7358 120.773 64.8971 120.307C65.0764 119.823 65.3004 119.375 65.5693 118.962C65.8561 118.55 66.1787 118.183 66.5372 117.86C66.9136 117.519 67.308 117.224 67.7202 116.973C65.9636 115.969 65.0853 114.49 65.0853 112.536C65.0853 111.855 65.2198 111.21 65.4886 110.601C65.7575 109.973 66.1339 109.427 66.6179 108.96C67.1198 108.494 67.7202 108.127 68.4193 107.858C69.1184 107.571 69.8981 107.428 70.7585 107.428C71.7622 107.428 72.6226 107.58 73.3396 107.885C74.0566 108.19 74.6391 108.584 75.0872 109.068C75.5533 109.534 75.8849 110.054 76.0821 110.627C76.2971 111.201 76.4047 111.757 76.4047 112.294C76.4047 112.814 76.324 113.307 76.1627 113.773C76.0193 114.221 75.8132 114.643 75.5443 115.037C75.2934 115.431 74.9976 115.781 74.6571 116.086C74.3344 116.39 73.9938 116.659 73.6354 116.892C75.7504 117.896 76.8259 119.482 76.8618 121.651ZM67.1825 121.812C67.1825 122.135 67.2363 122.476 67.3438 122.834C67.4693 123.175 67.6754 123.497 67.9622 123.802C68.249 124.089 68.6165 124.331 69.0646 124.528C69.5127 124.725 70.0773 124.824 70.7585 124.824C71.3679 124.824 71.8967 124.734 72.3448 124.555C72.8108 124.376 73.1872 124.152 73.474 123.883C73.7608 123.596 73.9759 123.273 74.1193 122.915C74.2627 122.556 74.3344 122.189 74.3344 121.812C74.3344 121.239 74.2269 120.737 74.0118 120.307C73.7967 119.877 73.483 119.5 73.0707 119.177C72.6764 118.855 72.1924 118.586 71.6188 118.371C71.0632 118.138 70.4269 117.941 69.7099 117.779C68.9033 118.227 68.2759 118.783 67.8278 119.446C67.3976 120.11 67.1825 120.898 67.1825 121.812ZM73.9042 112.268C73.9042 111.999 73.8415 111.703 73.716 111.38C73.6085 111.058 73.4292 110.762 73.1783 110.493C72.9273 110.206 72.6047 109.973 72.2103 109.794C71.816 109.597 71.332 109.498 70.7585 109.498C70.1849 109.498 69.6919 109.588 69.2797 109.767C68.8853 109.946 68.5627 110.179 68.3118 110.466C68.0608 110.735 67.8726 111.04 67.7471 111.38C67.6396 111.703 67.5858 112.026 67.5858 112.348C67.5858 112.743 67.6575 113.137 67.8009 113.531C67.9443 113.926 68.1684 114.293 68.4731 114.634C68.7778 114.974 69.1721 115.279 69.6561 115.548C70.158 115.817 70.7495 116.032 71.4306 116.193C72.1835 115.745 72.7839 115.225 73.232 114.634C73.6802 114.024 73.9042 113.236 73.9042 112.268ZM83.4612 125.039C83.4612 125.523 83.2999 125.944 82.9773 126.303C82.6546 126.661 82.2155 126.84 81.6598 126.84C81.1042 126.84 80.665 126.661 80.3424 126.303C80.0197 125.944 79.8584 125.523 79.8584 125.039C79.8584 124.555 80.0197 124.134 80.3424 123.775C80.665 123.417 81.1042 123.237 81.6598 123.237C82.2155 123.237 82.6546 123.417 82.9773 123.775C83.2999 124.134 83.4612 124.555 83.4612 125.039ZM83.4612 114.311C83.4612 114.795 83.2999 115.216 82.9773 115.575C82.6546 115.933 82.2155 116.112 81.6598 116.112C81.1042 116.112 80.665 115.933 80.3424 115.575C80.0197 115.216 79.8584 114.795 79.8584 114.311C79.8584 113.827 80.0197 113.406 80.3424 113.047C80.665 112.689 81.1042 112.51 81.6598 112.51C82.2155 112.51 82.6546 112.689 82.9773 113.047C83.2999 113.406 83.4612 113.827 83.4612 114.311ZM86.3138 117.161C86.3138 114.042 86.8605 111.64 87.9539 109.955C89.0652 108.27 90.5977 107.428 92.5515 107.428C94.5053 107.428 96.0289 108.27 97.1223 109.955C98.2336 111.64 98.7893 114.042 98.7893 117.161C98.7893 120.28 98.2336 122.682 97.1223 124.367C96.0289 126.052 94.5053 126.894 92.5515 126.894C90.5977 126.894 89.0652 126.052 87.9539 124.367C86.8605 122.682 86.3138 120.28 86.3138 117.161ZM96.1543 117.161C96.1543 116.139 96.0916 115.171 95.9661 114.257C95.8586 113.343 95.6614 112.545 95.3746 111.864C95.1058 111.183 94.7383 110.645 94.2723 110.251C93.8062 109.839 93.2326 109.633 92.5515 109.633C91.8704 109.633 91.2968 109.839 90.8308 110.251C90.3647 110.645 89.9883 111.183 89.7015 111.864C89.4326 112.545 89.2355 113.343 89.11 114.257C89.0024 115.171 88.9487 116.139 88.9487 117.161C88.9487 118.183 89.0024 119.151 89.11 120.065C89.2355 120.979 89.4326 121.777 89.7015 122.458C89.9883 123.139 90.3647 123.686 90.8308 124.098C91.2968 124.492 91.8704 124.689 92.5515 124.689C93.2326 124.689 93.8062 124.492 94.2723 124.098C94.7383 123.686 95.1058 123.139 95.3746 122.458C95.6614 121.777 95.8586 120.979 95.9661 120.065C96.0916 119.151 96.1543 118.183 96.1543 117.161ZM101.49 117.161C101.49 114.042 102.037 111.64 103.13 109.955C104.242 108.27 105.774 107.428 107.728 107.428C109.682 107.428 111.205 108.27 112.299 109.955C113.41 111.64 113.966 114.042 113.966 117.161C113.966 120.28 113.41 122.682 112.299 124.367C111.205 126.052 109.682 126.894 107.728 126.894C105.774 126.894 104.242 126.052 103.13 124.367C102.037 122.682 101.49 120.28 101.49 117.161ZM111.331 117.161C111.331 116.139 111.268 115.171 111.143 114.257C111.035 113.343 110.838 112.545 110.551 111.864C110.282 111.183 109.915 110.645 109.449 110.251C108.983 109.839 108.409 109.633 107.728 109.633C107.047 109.633 106.473 109.839 106.007 110.251C105.541 110.645 105.165 111.183 104.878 111.864C104.609 112.545 104.412 113.343 104.286 114.257C104.179 115.171 104.125 116.139 104.125 117.161C104.125 118.183 104.179 119.151 104.286 120.065C104.412 120.979 104.609 121.777 104.878 122.458C105.165 123.139 105.541 123.686 106.007 124.098C106.473 124.492 107.047 124.689 107.728 124.689C108.409 124.689 108.983 124.492 109.449 124.098C109.915 123.686 110.282 123.139 110.551 122.458C110.838 121.777 111.035 120.979 111.143 120.065C111.268 119.151 111.331 118.183 111.331 117.161ZM130.083 126.491C129.778 125.684 129.492 124.895 129.223 124.125C128.954 123.336 128.676 122.538 128.389 121.732H119.947L118.253 126.491H115.537C116.254 124.519 116.926 122.7 117.554 121.033C118.181 119.348 118.791 117.752 119.382 116.247C119.992 114.741 120.592 113.307 121.183 111.945C121.775 110.565 122.393 109.202 123.039 107.858H125.432C126.077 109.202 126.695 110.565 127.287 111.945C127.878 113.307 128.47 114.741 129.061 116.247C129.671 117.752 130.289 119.348 130.917 121.033C131.544 122.7 132.216 124.519 132.933 126.491H130.083ZM127.636 119.581C127.063 118.021 126.489 116.516 125.916 115.064C125.36 113.594 124.777 112.187 124.168 110.843C123.541 112.187 122.94 113.594 122.367 115.064C121.811 116.516 121.255 118.021 120.7 119.581H127.636ZM143.825 123.91C143.645 123.479 143.403 122.933 143.099 122.269C142.812 121.606 142.498 120.889 142.158 120.119C141.817 119.348 141.45 118.559 141.055 117.752C140.679 116.928 140.32 116.157 139.98 115.44C139.639 114.705 139.316 114.051 139.012 113.477C138.725 112.904 138.492 112.465 138.313 112.16C138.116 114.275 137.954 116.569 137.829 119.043C137.703 121.499 137.596 123.981 137.506 126.491H134.952C135.024 124.878 135.104 123.255 135.194 121.624C135.283 119.975 135.382 118.362 135.49 116.785C135.615 115.189 135.741 113.639 135.866 112.133C136.009 110.627 136.162 109.202 136.323 107.858H138.608C139.092 108.647 139.612 109.579 140.168 110.654C140.724 111.73 141.279 112.859 141.835 114.042C142.391 115.207 142.928 116.381 143.448 117.564C143.968 118.729 144.443 119.796 144.873 120.764C145.303 119.796 145.778 118.729 146.298 117.564C146.818 116.381 147.356 115.207 147.911 114.042C148.467 112.859 149.023 111.73 149.578 110.654C150.134 109.579 150.654 108.647 151.138 107.858H153.423C154.033 113.863 154.49 120.074 154.794 126.491H152.24C152.15 123.981 152.043 121.499 151.917 119.043C151.792 116.569 151.631 114.275 151.433 112.16C151.254 112.465 151.012 112.904 150.708 113.477C150.421 114.051 150.107 114.705 149.767 115.44C149.426 116.157 149.058 116.928 148.664 117.752C148.288 118.559 147.929 119.348 147.589 120.119C147.248 120.889 146.925 121.606 146.621 122.269C146.334 122.933 146.101 123.479 145.922 123.91H143.825Z" fill="#A8B0BF"/>
<circle cx="185.315" cy="116.991" r="5.76147" fill="white" stroke="#FB8F42" stroke-width="1.92049"/>
<rect x="207.401" y="47.8531" width="468.599" height="138.275" rx="30.7278" fill="#FB8F42"/>
<path d="M238.297 99.819C237.312 99.819 236.317 99.7831 235.313 99.7114C234.309 99.6577 233.431 99.5322 232.678 99.335V81.2402C233.072 81.1685 233.494 81.1057 233.942 81.052C234.39 80.9803 234.847 80.9265 235.313 80.8906C235.779 80.8548 236.236 80.8279 236.684 80.81C237.15 80.792 237.589 80.7831 238.002 80.7831C239.131 80.7831 240.18 80.8727 241.147 81.052C242.115 81.2133 242.949 81.4911 243.648 81.8854C244.365 82.2798 244.921 82.7996 245.315 83.4449C245.709 84.0902 245.906 84.8878 245.906 85.8378C245.906 86.7161 245.691 87.469 245.261 88.0963C244.849 88.7237 244.266 89.2256 243.514 89.602C244.643 89.9784 245.476 90.5341 246.014 91.269C246.552 92.0039 246.821 92.9359 246.821 94.0652C246.821 95.9831 246.122 97.426 244.723 98.394C243.325 99.344 241.183 99.819 238.297 99.819ZM236.012 91.2152V96.8883C236.389 96.9242 236.792 96.951 237.222 96.969C237.652 96.9869 238.047 96.9959 238.405 96.9959C239.104 96.9959 239.749 96.951 240.341 96.8614C240.95 96.7718 241.47 96.6194 241.9 96.4043C242.348 96.1713 242.698 95.8666 242.949 95.4902C243.218 95.1138 243.352 94.6298 243.352 94.0383C243.352 92.9808 242.967 92.2458 242.196 91.8336C241.425 91.4213 240.359 91.2152 238.997 91.2152H236.012ZM236.012 88.5534H238.405C239.696 88.5534 240.708 88.3741 241.443 88.0156C242.178 87.6392 242.546 86.976 242.546 86.026C242.546 85.1298 242.16 84.4935 241.389 84.1171C240.637 83.7406 239.651 83.5524 238.432 83.5524C237.912 83.5524 237.446 83.5614 237.034 83.5793C236.639 83.5972 236.299 83.6241 236.012 83.66V88.5534ZM258.2 88.4727C257.931 88.3831 257.555 88.2935 257.071 88.2039C256.605 88.0963 256.058 88.0425 255.431 88.0425C255.072 88.0425 254.687 88.0784 254.274 88.1501C253.88 88.2218 253.602 88.2845 253.441 88.3383V99.6039H250.188V86.2142C250.815 85.9812 251.595 85.7661 252.527 85.5689C253.477 85.3539 254.525 85.2463 255.672 85.2463C255.888 85.2463 256.139 85.2642 256.425 85.3001C256.712 85.318 256.999 85.3539 257.286 85.4076C257.572 85.4435 257.85 85.4972 258.119 85.5689C258.388 85.6227 258.603 85.6765 258.764 85.7303L258.2 88.4727ZM265.979 97.3185C266.983 97.3185 267.744 97.2647 268.264 97.1572V93.5543C268.085 93.5006 267.825 93.4468 267.484 93.393C267.144 93.3392 266.767 93.3124 266.355 93.3124C265.997 93.3124 265.629 93.3392 265.253 93.393C264.894 93.4468 264.563 93.5454 264.258 93.6888C263.971 93.8322 263.738 94.0383 263.559 94.3072C263.38 94.5581 263.29 94.8808 263.29 95.2751C263.29 96.0459 263.532 96.5836 264.016 96.8883C264.5 97.1751 265.154 97.3185 265.979 97.3185ZM265.71 85.1925C266.785 85.1925 267.691 85.327 268.425 85.5958C269.16 85.8647 269.743 86.2411 270.173 86.7251C270.621 87.209 270.935 87.8006 271.114 88.4996C271.311 89.1807 271.41 89.9336 271.41 90.7581V99.2812C270.908 99.3888 270.146 99.5143 269.125 99.6577C268.121 99.819 266.983 99.8996 265.71 99.8996C264.867 99.8996 264.097 99.819 263.398 99.6577C262.699 99.4963 262.098 99.2364 261.596 98.8779C261.112 98.5194 260.727 98.0534 260.44 97.4798C260.171 96.9062 260.037 96.1982 260.037 95.3558C260.037 94.5492 260.189 93.868 260.494 93.3124C260.816 92.7567 261.247 92.3086 261.784 91.968C262.322 91.6095 262.941 91.3586 263.64 91.2152C264.357 91.0539 265.1 90.9732 265.871 90.9732C266.23 90.9732 266.606 91.0001 267 91.0539C267.395 91.0897 267.816 91.1614 268.264 91.269V90.7312C268.264 90.3548 268.219 89.9963 268.13 89.6557C268.04 89.3152 267.879 89.0194 267.646 88.7685C267.431 88.4996 267.135 88.2935 266.758 88.1501C266.4 88.0067 265.943 87.935 265.387 87.935C264.634 87.935 263.944 87.9888 263.317 88.0963C262.69 88.2039 262.179 88.3293 261.784 88.4727L261.381 85.8378C261.793 85.6944 262.394 85.551 263.183 85.4076C263.971 85.2642 264.814 85.1925 265.71 85.1925ZM278.674 99.6039H275.421V85.5421H278.674V99.6039ZM279.024 81.4284C279.024 82.0378 278.827 82.5218 278.432 82.8803C278.038 83.2388 277.572 83.418 277.034 83.418C276.478 83.418 276.003 83.2388 275.609 82.8803C275.215 82.5218 275.018 82.0378 275.018 81.4284C275.018 80.801 275.215 80.3081 275.609 79.9496C276.003 79.5911 276.478 79.4119 277.034 79.4119C277.572 79.4119 278.038 79.5911 278.432 79.9496C278.827 80.3081 279.024 80.801 279.024 81.4284ZM282.825 85.9991C283.452 85.8199 284.268 85.6496 285.271 85.4883C286.275 85.327 287.386 85.2463 288.605 85.2463C289.752 85.2463 290.711 85.4076 291.482 85.7303C292.253 86.035 292.862 86.4741 293.311 87.0477C293.777 87.6034 294.099 88.2845 294.278 89.0911C294.476 89.8798 294.574 90.7491 294.574 91.6991V99.6039H291.321V92.21C291.321 91.4572 291.267 90.8208 291.16 90.301C291.07 89.7633 290.909 89.3331 290.676 89.0105C290.461 88.6699 290.156 88.4279 289.761 88.2845C289.385 88.1232 288.919 88.0425 288.363 88.0425C287.951 88.0425 287.521 88.0694 287.073 88.1232C286.625 88.177 286.293 88.2218 286.078 88.2576V99.6039H282.825V85.9991ZM302.075 97.2647C302.935 97.2647 303.562 97.1661 303.957 96.969C304.351 96.7539 304.548 96.3954 304.548 95.8935C304.548 95.4275 304.333 95.0421 303.903 94.7374C303.491 94.4326 302.801 94.101 301.833 93.7425C301.241 93.5275 300.694 93.3034 300.192 93.0704C299.709 92.8194 299.287 92.5326 298.929 92.21C298.57 91.8874 298.284 91.502 298.068 91.0539C297.871 90.5878 297.773 90.0232 297.773 89.36C297.773 88.0694 298.248 87.0567 299.198 86.3218C300.148 85.5689 301.438 85.1925 303.069 85.1925C303.894 85.1925 304.683 85.2732 305.435 85.4345C306.188 85.5779 306.753 85.7213 307.129 85.8647L306.538 88.4996C306.179 88.3383 305.722 88.1949 305.167 88.0694C304.611 87.926 303.966 87.8543 303.231 87.8543C302.567 87.8543 302.03 87.9708 301.617 88.2039C301.205 88.419 300.999 88.7595 300.999 89.2256C300.999 89.4586 301.035 89.6647 301.107 89.844C301.196 90.0232 301.34 90.1935 301.537 90.3548C301.734 90.4982 301.994 90.6506 302.317 90.8119C302.639 90.9553 303.034 91.1076 303.5 91.269C304.27 91.5558 304.925 91.8425 305.462 92.1293C306 92.3982 306.439 92.7119 306.78 93.0704C307.138 93.4109 307.398 93.8053 307.559 94.2534C307.721 94.7015 307.801 95.2392 307.801 95.8666C307.801 97.211 307.3 98.2327 306.296 98.9317C305.31 99.6128 303.894 99.9534 302.048 99.9534C300.811 99.9534 299.816 99.8459 299.063 99.6308C298.31 99.4336 297.782 99.2723 297.477 99.1468L298.042 96.4312C298.526 96.6284 299.099 96.8166 299.762 96.9959C300.443 97.1751 301.214 97.2647 302.075 97.2647ZM310.679 81.8317L313.933 81.2939V85.5421H318.933V88.2576H313.933V93.9845C313.933 95.1138 314.112 95.9204 314.47 96.4043C314.829 96.8883 315.438 97.1303 316.299 97.1303C316.89 97.1303 317.41 97.0676 317.858 96.9421C318.324 96.8166 318.691 96.7001 318.96 96.5926L319.498 99.1737C319.122 99.335 318.629 99.4963 318.019 99.6577C317.41 99.8369 316.693 99.9265 315.868 99.9265C314.865 99.9265 314.022 99.7921 313.341 99.5232C312.678 99.2544 312.149 98.869 311.755 98.3671C311.36 97.8473 311.083 97.2289 310.921 96.5119C310.76 95.777 310.679 94.9435 310.679 94.0114V81.8317ZM334.481 92.5595C334.481 93.6709 334.319 94.6836 333.997 95.5977C333.674 96.5119 333.217 97.2916 332.626 97.9369C332.034 98.5822 331.317 99.0841 330.475 99.4426C329.65 99.8011 328.736 99.9803 327.732 99.9803C326.728 99.9803 325.814 99.8011 324.99 99.4426C324.165 99.0841 323.457 98.5822 322.866 97.9369C322.274 97.2916 321.808 96.5119 321.468 95.5977C321.145 94.6836 320.984 93.6709 320.984 92.5595C320.984 91.4482 321.145 90.4444 321.468 89.5482C321.808 88.634 322.274 87.8543 322.866 87.209C323.475 86.5638 324.192 86.0708 325.017 85.7303C325.841 85.3718 326.746 85.1925 327.732 85.1925C328.718 85.1925 329.623 85.3718 330.448 85.7303C331.29 86.0708 332.007 86.5638 332.599 87.209C333.19 87.8543 333.647 88.634 333.97 89.5482C334.31 90.4444 334.481 91.4482 334.481 92.5595ZM331.147 92.5595C331.147 91.1614 330.842 90.0591 330.233 89.2524C329.641 88.4279 328.808 88.0156 327.732 88.0156C326.657 88.0156 325.814 88.4279 325.205 89.2524C324.613 90.0591 324.318 91.1614 324.318 92.5595C324.318 93.9756 324.613 95.0959 325.205 95.9204C325.814 96.7449 326.657 97.1572 327.732 97.1572C328.808 97.1572 329.641 96.7449 330.233 95.9204C330.842 95.0959 331.147 93.9756 331.147 92.5595ZM345.845 88.4727C345.576 88.3831 345.199 88.2935 344.715 88.2039C344.249 88.0963 343.703 88.0425 343.075 88.0425C342.717 88.0425 342.331 88.0784 341.919 88.1501C341.525 88.2218 341.247 88.2845 341.086 88.3383V99.6039H337.832V86.2142C338.46 85.9812 339.239 85.7661 340.172 85.5689C341.122 85.3539 342.17 85.2463 343.317 85.2463C343.532 85.2463 343.783 85.2642 344.07 85.3001C344.357 85.318 344.644 85.3539 344.931 85.4076C345.217 85.4435 345.495 85.4972 345.764 85.5689C346.033 85.6227 346.248 85.6765 346.409 85.7303L345.845 88.4727ZM356.689 92.21C356.689 90.7402 356.5 89.6826 356.124 89.0374C355.766 88.3741 355.084 88.0425 354.081 88.0425C353.722 88.0425 353.328 88.0694 352.898 88.1232C352.467 88.177 352.145 88.2218 351.93 88.2576V99.6039H348.676V85.9991C349.304 85.8199 350.119 85.6496 351.123 85.4883C352.145 85.327 353.22 85.2463 354.35 85.2463C355.317 85.2463 356.106 85.3718 356.716 85.6227C357.343 85.8737 357.863 86.2053 358.275 86.6175C358.472 86.4741 358.723 86.3218 359.028 86.1605C359.333 85.9991 359.673 85.8557 360.05 85.7303C360.426 85.5869 360.82 85.4704 361.233 85.3807C361.663 85.2911 362.093 85.2463 362.523 85.2463C363.617 85.2463 364.513 85.4076 365.212 85.7303C365.929 86.035 366.484 86.4741 366.879 87.0477C367.291 87.6034 367.569 88.2845 367.712 89.0911C367.874 89.8798 367.954 90.7491 367.954 91.6991V99.6039H364.701V92.21C364.701 90.7402 364.522 89.6826 364.163 89.0374C363.805 88.3741 363.115 88.0425 362.093 88.0425C361.573 88.0425 361.08 88.1322 360.614 88.3114C360.148 88.4727 359.799 88.634 359.566 88.7954C359.709 89.2435 359.808 89.7185 359.861 90.2204C359.915 90.7223 359.942 91.26 359.942 91.8336V99.6039H356.689V92.21ZM375.22 99.6039H371.967V85.5421H375.22V99.6039ZM375.57 81.4284C375.57 82.0378 375.372 82.5218 374.978 82.8803C374.584 83.2388 374.118 83.418 373.58 83.418C373.024 83.418 372.549 83.2388 372.155 82.8803C371.761 82.5218 371.563 82.0378 371.563 81.4284C371.563 80.801 371.761 80.3081 372.155 79.9496C372.549 79.5911 373.024 79.4119 373.58 79.4119C374.118 79.4119 374.584 79.5911 374.978 79.9496C375.372 80.3081 375.57 80.801 375.57 81.4284ZM379.37 85.9991C379.998 85.8199 380.813 85.6496 381.817 85.4883C382.821 85.327 383.932 85.2463 385.151 85.2463C386.298 85.2463 387.257 85.4076 388.028 85.7303C388.799 86.035 389.408 86.4741 389.856 87.0477C390.322 87.6034 390.645 88.2845 390.824 89.0911C391.021 89.8798 391.12 90.7491 391.12 91.6991V99.6039H387.867V92.21C387.867 91.4572 387.813 90.8208 387.705 90.301C387.616 89.7633 387.454 89.3331 387.221 89.0105C387.006 88.6699 386.702 88.4279 386.307 88.2845C385.931 88.1232 385.465 88.0425 384.909 88.0425C384.497 88.0425 384.067 88.0694 383.619 88.1232C383.17 88.177 382.839 88.2218 382.624 88.2576V99.6039H379.37V85.9991ZM397.652 92.21C397.652 93.5902 397.948 94.6029 398.54 95.2482C399.149 95.8756 399.929 96.1893 400.879 96.1893C401.399 96.1893 401.883 96.1176 402.331 95.9742C402.797 95.8308 403.173 95.6605 403.46 95.4633V88.177C403.227 88.1232 402.94 88.0784 402.6 88.0425C402.259 87.9888 401.829 87.9619 401.309 87.9619C400.126 87.9619 399.221 88.3562 398.594 89.1449C397.966 89.9157 397.652 90.9374 397.652 92.21ZM406.713 98.1789C406.713 100.419 406.14 102.06 404.993 103.099C403.863 104.139 402.125 104.659 399.777 104.659C398.916 104.659 398.074 104.587 397.249 104.444C396.443 104.3 395.708 104.112 395.044 103.879L395.636 101.11C396.192 101.343 396.819 101.531 397.518 101.674C398.235 101.818 399.006 101.889 399.83 101.889C401.139 101.889 402.071 101.62 402.627 101.083C403.182 100.545 403.46 99.7473 403.46 98.6897V98.152C403.137 98.3133 402.707 98.4746 402.169 98.636C401.65 98.7973 401.049 98.8779 400.368 98.8779C399.472 98.8779 398.647 98.7345 397.894 98.4477C397.16 98.161 396.523 97.7397 395.986 97.1841C395.466 96.6284 395.053 95.9383 394.749 95.1138C394.462 94.2713 394.319 93.3034 394.319 92.21C394.319 91.1883 394.471 90.2473 394.776 89.3869C395.098 88.5265 395.555 87.7916 396.147 87.1822C396.756 86.5727 397.491 86.0977 398.352 85.7572C399.212 85.4166 400.189 85.2463 401.282 85.2463C402.34 85.2463 403.344 85.327 404.294 85.4883C405.244 85.6496 406.05 85.8199 406.713 85.9991V98.1789Z" fill="white"/>
<path d="M643.204 83.9902H633.234H624.255C622.719 83.9902 621.951 85.8467 623.039 86.935L631.329 95.2251C632.657 96.5534 634.818 96.5534 636.146 95.2251L639.299 92.0723L644.436 86.935C645.509 85.8467 644.741 83.9902 643.204 83.9902Z" fill="white"/>
<rect x="230.447" y="124.673" width="38.4098" height="38.4098" rx="19.2049" fill="white" fill-opacity="0.2"/>
<path d="M249.643 134.275C244.352 134.275 240.04 138.587 240.04 143.877C240.04 149.168 244.352 153.48 249.643 153.48C254.934 153.48 259.245 149.168 259.245 143.877C259.245 138.587 254.934 134.275 249.643 134.275ZM253.82 147.306C253.685 147.536 253.445 147.661 253.196 147.661C253.071 147.661 252.946 147.632 252.831 147.555L249.854 145.779C249.115 145.337 248.567 144.367 248.567 143.513V139.576C248.567 139.182 248.894 138.855 249.287 138.855C249.681 138.855 250.008 139.182 250.008 139.576V143.513C250.008 143.858 250.296 144.367 250.593 144.54L253.57 146.316C253.916 146.518 254.031 146.96 253.82 147.306Z" fill="white"/>
<path d="M277.691 144.881C277.691 142.207 278.159 140.149 279.096 138.704C280.049 137.26 281.363 136.538 283.037 136.538C284.712 136.538 286.018 137.26 286.955 138.704C287.908 140.149 288.384 142.207 288.384 144.881C288.384 147.554 287.908 149.613 286.955 151.057C286.018 152.501 284.712 153.223 283.037 153.223C281.363 153.223 280.049 152.501 279.096 151.057C278.159 149.613 277.691 147.554 277.691 144.881ZM286.125 144.881C286.125 144.005 286.072 143.175 285.964 142.392C285.872 141.608 285.703 140.924 285.457 140.341C285.227 139.757 284.912 139.296 284.512 138.958C284.113 138.604 283.621 138.428 283.037 138.428C282.453 138.428 281.962 138.604 281.562 138.958C281.163 139.296 280.84 139.757 280.594 140.341C280.364 140.924 280.195 141.608 280.087 142.392C279.995 143.175 279.949 144.005 279.949 144.881C279.949 145.756 279.995 146.586 280.087 147.37C280.195 148.153 280.364 148.837 280.594 149.421C280.84 150.005 281.163 150.473 281.562 150.826C281.962 151.164 282.453 151.333 283.037 151.333C283.621 151.333 284.113 151.164 284.512 150.826C284.912 150.473 285.227 150.005 285.457 149.421C285.703 148.837 285.872 148.153 285.964 147.37C286.072 146.586 286.125 145.756 286.125 144.881ZM301.277 148.729C301.277 149.375 301.162 149.974 300.931 150.527C300.716 151.065 300.386 151.541 299.94 151.956C299.51 152.355 298.965 152.662 298.304 152.878C297.643 153.108 296.883 153.223 296.023 153.223C295.024 153.223 294.187 153.085 293.511 152.808C292.85 152.517 292.32 152.155 291.92 151.725C291.521 151.295 291.237 150.826 291.068 150.319C290.899 149.797 290.814 149.305 290.814 148.845C290.814 148.399 290.883 147.976 291.022 147.577C291.175 147.162 291.367 146.778 291.598 146.425C291.844 146.071 292.12 145.756 292.427 145.48C292.75 145.188 293.088 144.934 293.441 144.719C291.936 143.859 291.183 142.591 291.183 140.917C291.183 140.333 291.298 139.78 291.529 139.257C291.759 138.72 292.082 138.251 292.497 137.852C292.927 137.452 293.441 137.137 294.041 136.907C294.64 136.661 295.308 136.538 296.046 136.538C296.906 136.538 297.643 136.669 298.258 136.93C298.873 137.191 299.372 137.529 299.756 137.944C300.155 138.343 300.44 138.789 300.609 139.28C300.793 139.772 300.885 140.248 300.885 140.709C300.885 141.155 300.816 141.577 300.678 141.977C300.555 142.361 300.378 142.722 300.148 143.06C299.933 143.398 299.679 143.698 299.387 143.959C299.111 144.22 298.819 144.45 298.511 144.65C300.324 145.511 301.246 146.87 301.277 148.729ZM292.98 148.868C292.98 149.144 293.027 149.436 293.119 149.743C293.226 150.035 293.403 150.312 293.649 150.573C293.895 150.819 294.21 151.026 294.594 151.195C294.978 151.364 295.462 151.449 296.046 151.449C296.568 151.449 297.021 151.372 297.405 151.218C297.805 151.065 298.127 150.873 298.373 150.642C298.619 150.396 298.803 150.12 298.926 149.812C299.049 149.505 299.111 149.19 299.111 148.868C299.111 148.376 299.018 147.946 298.834 147.577C298.65 147.208 298.381 146.886 298.028 146.609C297.69 146.333 297.275 146.102 296.783 145.918C296.307 145.718 295.761 145.549 295.147 145.411C294.455 145.795 293.918 146.271 293.534 146.84C293.165 147.408 292.98 148.084 292.98 148.868ZM298.742 140.686C298.742 140.456 298.688 140.202 298.581 139.926C298.488 139.649 298.335 139.396 298.12 139.165C297.905 138.919 297.628 138.72 297.29 138.566C296.952 138.397 296.537 138.313 296.046 138.313C295.554 138.313 295.131 138.389 294.778 138.543C294.44 138.697 294.163 138.896 293.948 139.142C293.733 139.373 293.572 139.634 293.464 139.926C293.372 140.202 293.326 140.479 293.326 140.755C293.326 141.093 293.388 141.431 293.511 141.769C293.633 142.107 293.825 142.422 294.087 142.714C294.348 143.006 294.686 143.267 295.101 143.498C295.531 143.728 296.038 143.913 296.622 144.051C297.267 143.667 297.782 143.221 298.166 142.714C298.55 142.192 298.742 141.516 298.742 140.686ZM306.934 151.633C306.934 152.048 306.795 152.409 306.519 152.716C306.242 153.024 305.866 153.177 305.39 153.177C304.913 153.177 304.537 153.024 304.26 152.716C303.984 152.409 303.846 152.048 303.846 151.633C303.846 151.218 303.984 150.857 304.26 150.55C304.537 150.243 304.913 150.089 305.39 150.089C305.866 150.089 306.242 150.243 306.519 150.55C306.795 150.857 306.934 151.218 306.934 151.633ZM306.934 142.438C306.934 142.853 306.795 143.214 306.519 143.521C306.242 143.828 305.866 143.982 305.39 143.982C304.913 143.982 304.537 143.828 304.26 143.521C303.984 143.214 303.846 142.853 303.846 142.438C303.846 142.023 303.984 141.662 304.26 141.355C304.537 141.047 304.913 140.894 305.39 140.894C305.866 140.894 306.242 141.047 306.519 141.355C306.795 141.662 306.934 142.023 306.934 142.438ZM309.379 144.881C309.379 142.207 309.847 140.149 310.784 138.704C311.737 137.26 313.051 136.538 314.725 136.538C316.4 136.538 317.706 137.26 318.643 138.704C319.596 140.149 320.072 142.207 320.072 144.881C320.072 147.554 319.596 149.613 318.643 151.057C317.706 152.501 316.4 153.223 314.725 153.223C313.051 153.223 311.737 152.501 310.784 151.057C309.847 149.613 309.379 147.554 309.379 144.881ZM317.813 144.881C317.813 144.005 317.76 143.175 317.652 142.392C317.56 141.608 317.391 140.924 317.145 140.341C316.915 139.757 316.6 139.296 316.2 138.958C315.801 138.604 315.309 138.428 314.725 138.428C314.142 138.428 313.65 138.604 313.25 138.958C312.851 139.296 312.528 139.757 312.282 140.341C312.052 140.924 311.883 141.608 311.775 142.392C311.683 143.175 311.637 144.005 311.637 144.881C311.637 145.756 311.683 146.586 311.775 147.37C311.883 148.153 312.052 148.837 312.282 149.421C312.528 150.005 312.851 150.473 313.25 150.826C313.65 151.164 314.142 151.333 314.725 151.333C315.309 151.333 315.801 151.164 316.2 150.826C316.6 150.473 316.915 150.005 317.145 149.421C317.391 148.837 317.56 148.153 317.652 147.37C317.76 146.586 317.813 145.756 317.813 144.881ZM322.387 144.881C322.387 142.207 322.856 140.149 323.793 138.704C324.745 137.26 326.059 136.538 327.734 136.538C329.408 136.538 330.714 137.26 331.651 138.704C332.604 140.149 333.08 142.207 333.08 144.881C333.08 147.554 332.604 149.613 331.651 151.057C330.714 152.501 329.408 153.223 327.734 153.223C326.059 153.223 324.745 152.501 323.793 151.057C322.856 149.613 322.387 147.554 322.387 144.881ZM330.822 144.881C330.822 144.005 330.768 143.175 330.66 142.392C330.568 141.608 330.399 140.924 330.153 140.341C329.923 139.757 329.608 139.296 329.209 138.958C328.809 138.604 328.317 138.428 327.734 138.428C327.15 138.428 326.658 138.604 326.259 138.958C325.859 139.296 325.537 139.757 325.291 140.341C325.06 140.924 324.891 141.608 324.784 142.392C324.692 143.175 324.646 144.005 324.646 144.881C324.646 145.756 324.692 146.586 324.784 147.37C324.891 148.153 325.06 148.837 325.291 149.421C325.537 150.005 325.859 150.473 326.259 150.826C326.658 151.164 327.15 151.333 327.734 151.333C328.317 151.333 328.809 151.164 329.209 150.826C329.608 150.473 329.923 150.005 330.153 149.421C330.399 148.837 330.568 148.153 330.66 147.37C330.768 146.586 330.822 145.756 330.822 144.881ZM352.229 152.878C351.968 152.186 351.722 151.51 351.492 150.85C351.261 150.174 351.023 149.49 350.777 148.798H343.541L342.089 152.878H339.761C340.376 151.188 340.952 149.628 341.49 148.199C342.027 146.755 342.55 145.388 343.057 144.097C343.579 142.807 344.094 141.577 344.601 140.41C345.108 139.227 345.638 138.059 346.191 136.907H348.242C348.795 138.059 349.325 139.227 349.832 140.41C350.339 141.577 350.846 142.807 351.353 144.097C351.876 145.388 352.406 146.755 352.943 148.199C353.481 149.628 354.057 151.188 354.672 152.878H352.229ZM350.132 146.955C349.64 145.618 349.149 144.328 348.657 143.083C348.181 141.823 347.681 140.617 347.159 139.465C346.621 140.617 346.107 141.823 345.615 143.083C345.139 144.328 344.662 145.618 344.186 146.955H350.132ZM364.007 150.665C363.854 150.296 363.646 149.828 363.385 149.259C363.139 148.691 362.871 148.076 362.579 147.416C362.287 146.755 361.972 146.079 361.634 145.388C361.311 144.681 361.004 144.02 360.712 143.406C360.42 142.776 360.143 142.215 359.882 141.723C359.636 141.232 359.437 140.855 359.283 140.594C359.114 142.407 358.976 144.374 358.868 146.494C358.761 148.599 358.669 150.727 358.592 152.878H356.402C356.464 151.495 356.533 150.104 356.61 148.706C356.687 147.293 356.771 145.91 356.863 144.558C356.971 143.191 357.078 141.862 357.186 140.571C357.309 139.28 357.439 138.059 357.578 136.907H359.537C359.951 137.583 360.397 138.382 360.873 139.304C361.35 140.225 361.826 141.193 362.302 142.207C362.778 143.206 363.239 144.212 363.685 145.226C364.13 146.225 364.538 147.139 364.906 147.969C365.275 147.139 365.682 146.225 366.128 145.226C366.573 144.212 367.034 143.206 367.51 142.207C367.987 141.193 368.463 140.225 368.939 139.304C369.416 138.382 369.861 137.583 370.276 136.907H372.235C372.757 142.054 373.149 147.377 373.41 152.878H371.221C371.144 150.727 371.052 148.599 370.944 146.494C370.837 144.374 370.698 142.407 370.529 140.594C370.376 140.855 370.168 141.232 369.907 141.723C369.661 142.215 369.393 142.776 369.101 143.406C368.809 144.02 368.494 144.681 368.156 145.388C367.833 146.079 367.526 146.755 367.234 147.416C366.942 148.076 366.665 148.691 366.404 149.259C366.158 149.828 365.959 150.296 365.805 150.665H364.007ZM380.866 144.973H386.559V146.978H380.866V144.973ZM393.64 144.881C393.64 142.207 394.109 140.149 395.046 138.704C395.999 137.26 397.312 136.538 398.987 136.538C400.661 136.538 401.967 137.26 402.905 138.704C403.857 140.149 404.333 142.207 404.333 144.881C404.333 147.554 403.857 149.613 402.905 151.057C401.967 152.501 400.661 153.223 398.987 153.223C397.312 153.223 395.999 152.501 395.046 151.057C394.109 149.613 393.64 147.554 393.64 144.881ZM402.075 144.881C402.075 144.005 402.021 143.175 401.914 142.392C401.821 141.608 401.652 140.924 401.407 140.341C401.176 139.757 400.861 139.296 400.462 138.958C400.062 138.604 399.571 138.428 398.987 138.428C398.403 138.428 397.911 138.604 397.512 138.958C397.112 139.296 396.79 139.757 396.544 140.341C396.313 140.924 396.144 141.608 396.037 142.392C395.945 143.175 395.899 144.005 395.899 144.881C395.899 145.756 395.945 146.586 396.037 147.37C396.144 148.153 396.313 148.837 396.544 149.421C396.79 150.005 397.112 150.473 397.512 150.826C397.911 151.164 398.403 151.333 398.987 151.333C399.571 151.333 400.062 151.164 400.462 150.826C400.861 150.473 401.176 150.005 401.407 149.421C401.652 148.837 401.821 148.153 401.914 147.37C402.021 146.586 402.075 145.756 402.075 144.881ZM417.042 143.29C417.042 146.455 416.251 148.852 414.668 150.481C413.101 152.094 410.766 152.908 407.662 152.924L407.593 151.126C408.561 151.126 409.429 151.034 410.198 150.85C410.981 150.665 411.665 150.373 412.249 149.974C412.832 149.559 413.316 149.029 413.7 148.384C414.1 147.738 414.392 146.947 414.576 146.01C414.177 146.194 413.724 146.348 413.217 146.471C412.71 146.578 412.187 146.632 411.649 146.632C410.743 146.632 409.975 146.502 409.345 146.24C408.715 145.964 408.2 145.603 407.801 145.157C407.401 144.696 407.109 144.174 406.925 143.59C406.756 142.991 406.672 142.369 406.672 141.723C406.672 141.155 406.771 140.563 406.971 139.949C407.171 139.334 407.47 138.773 407.87 138.266C408.285 137.759 408.807 137.345 409.437 137.022C410.067 136.699 410.812 136.538 411.672 136.538C412.548 136.538 413.316 136.692 413.977 136.999C414.653 137.306 415.214 137.752 415.659 138.336C416.12 138.919 416.466 139.634 416.696 140.479C416.927 141.309 417.042 142.246 417.042 143.29ZM411.88 144.881C412.418 144.881 412.925 144.835 413.401 144.742C413.877 144.635 414.338 144.481 414.784 144.281C414.799 144.112 414.807 143.951 414.807 143.797C414.807 143.628 414.807 143.459 414.807 143.29C414.807 142.63 414.761 142 414.668 141.401C414.576 140.786 414.407 140.256 414.161 139.811C413.931 139.35 413.616 138.989 413.217 138.727C412.817 138.451 412.31 138.313 411.696 138.313C411.189 138.313 410.758 138.42 410.405 138.635C410.052 138.85 409.76 139.127 409.529 139.465C409.299 139.788 409.13 140.149 409.022 140.548C408.93 140.932 408.884 141.309 408.884 141.677C408.884 142.722 409.13 143.521 409.621 144.074C410.128 144.612 410.881 144.881 411.88 144.881ZM422.883 151.633C422.883 152.048 422.745 152.409 422.468 152.716C422.192 153.024 421.815 153.177 421.339 153.177C420.863 153.177 420.486 153.024 420.21 152.716C419.933 152.409 419.795 152.048 419.795 151.633C419.795 151.218 419.933 150.857 420.21 150.55C420.486 150.243 420.863 150.089 421.339 150.089C421.815 150.089 422.192 150.243 422.468 150.55C422.745 150.857 422.883 151.218 422.883 151.633ZM422.883 142.438C422.883 142.853 422.745 143.214 422.468 143.521C422.192 143.828 421.815 143.982 421.339 143.982C420.863 143.982 420.486 143.828 420.21 143.521C419.933 143.214 419.795 142.853 419.795 142.438C419.795 142.023 419.933 141.662 420.21 141.355C420.486 141.047 420.863 140.894 421.339 140.894C421.815 140.894 422.192 141.047 422.468 141.355C422.745 141.662 422.883 142.023 422.883 142.438ZM429.384 151.31C430.752 151.31 431.727 151.042 432.311 150.504C432.91 149.966 433.21 149.244 433.21 148.338C433.21 147.754 433.087 147.262 432.841 146.863C432.595 146.463 432.273 146.148 431.873 145.918C431.474 145.672 431.005 145.503 430.467 145.411C429.945 145.303 429.407 145.249 428.854 145.249H428.301V143.498H429.062C429.446 143.498 429.838 143.459 430.237 143.383C430.652 143.306 431.028 143.168 431.366 142.968C431.704 142.768 431.981 142.499 432.196 142.161C432.411 141.808 432.519 141.37 432.519 140.848C432.519 140.417 432.442 140.049 432.288 139.741C432.134 139.434 431.927 139.181 431.666 138.981C431.42 138.781 431.128 138.643 430.79 138.566C430.467 138.474 430.122 138.428 429.753 138.428C429.016 138.428 428.386 138.535 427.863 138.75C427.356 138.966 426.926 139.188 426.573 139.419L425.743 137.783C425.927 137.66 426.158 137.529 426.434 137.391C426.726 137.237 427.049 137.099 427.402 136.976C427.756 136.853 428.132 136.753 428.532 136.676C428.946 136.584 429.377 136.538 429.822 136.538C430.667 136.538 431.397 136.646 432.012 136.861C432.626 137.06 433.133 137.352 433.533 137.736C433.932 138.105 434.232 138.551 434.431 139.073C434.631 139.58 434.731 140.133 434.731 140.732C434.731 141.562 434.493 142.276 434.017 142.876C433.54 143.459 432.964 143.905 432.288 144.212C432.703 144.335 433.102 144.512 433.486 144.742C433.871 144.973 434.201 145.265 434.477 145.618C434.769 145.971 435 146.379 435.169 146.84C435.353 147.3 435.445 147.815 435.445 148.384C435.445 149.075 435.322 149.72 435.077 150.319C434.846 150.903 434.477 151.41 433.97 151.84C433.479 152.271 432.857 152.609 432.104 152.855C431.351 153.1 430.46 153.223 429.43 153.223C429.031 153.223 428.616 153.193 428.186 153.131C427.771 153.07 427.379 152.993 427.011 152.901C426.642 152.808 426.319 152.716 426.043 152.624C425.766 152.532 425.566 152.455 425.443 152.394L425.858 150.527C426.119 150.65 426.55 150.811 427.149 151.011C427.763 151.211 428.509 151.31 429.384 151.31ZM438.337 144.881C438.337 142.207 438.805 140.149 439.742 138.704C440.695 137.26 442.009 136.538 443.683 136.538C445.358 136.538 446.664 137.26 447.601 138.704C448.554 140.149 449.03 142.207 449.03 144.881C449.03 147.554 448.554 149.613 447.601 151.057C446.664 152.501 445.358 153.223 443.683 153.223C442.009 153.223 440.695 152.501 439.742 151.057C438.805 149.613 438.337 147.554 438.337 144.881ZM446.771 144.881C446.771 144.005 446.718 143.175 446.61 142.392C446.518 141.608 446.349 140.924 446.103 140.341C445.873 139.757 445.558 139.296 445.158 138.958C444.759 138.604 444.267 138.428 443.683 138.428C443.099 138.428 442.608 138.604 442.208 138.958C441.809 139.296 441.486 139.757 441.24 140.341C441.01 140.924 440.841 141.608 440.733 142.392C440.641 143.175 440.595 144.005 440.595 144.881C440.595 145.756 440.641 146.586 440.733 147.37C440.841 148.153 441.01 148.837 441.24 149.421C441.486 150.005 441.809 150.473 442.208 150.826C442.608 151.164 443.099 151.333 443.683 151.333C444.267 151.333 444.759 151.164 445.158 150.826C445.558 150.473 445.873 150.005 446.103 149.421C446.349 148.837 446.518 148.153 446.61 147.37C446.718 146.586 446.771 145.756 446.771 144.881ZM468.179 152.878C467.917 152.186 467.672 151.51 467.441 150.85C467.211 150.174 466.973 149.49 466.727 148.798H459.49L458.038 152.878H455.711C456.325 151.188 456.901 149.628 457.439 148.199C457.977 146.755 458.499 145.388 459.006 144.097C459.529 142.807 460.043 141.577 460.55 140.41C461.057 139.227 461.587 138.059 462.141 136.907H464.192C464.745 138.059 465.275 139.227 465.782 140.41C466.289 141.577 466.796 142.807 467.303 144.097C467.825 145.388 468.355 146.755 468.893 148.199C469.431 149.628 470.007 151.188 470.621 152.878H468.179ZM466.081 146.955C465.59 145.618 465.098 144.328 464.606 143.083C464.13 141.823 463.631 140.617 463.109 139.465C462.571 140.617 462.056 141.823 461.564 143.083C461.088 144.328 460.612 145.618 460.136 146.955H466.081ZM479.957 150.665C479.803 150.296 479.596 149.828 479.335 149.259C479.089 148.691 478.82 148.076 478.528 147.416C478.236 146.755 477.921 146.079 477.583 145.388C477.261 144.681 476.953 144.02 476.661 143.406C476.37 142.776 476.093 142.215 475.832 141.723C475.586 141.232 475.386 140.855 475.233 140.594C475.064 142.407 474.925 144.374 474.818 146.494C474.71 148.599 474.618 150.727 474.541 152.878H472.352C472.413 151.495 472.482 150.104 472.559 148.706C472.636 147.293 472.721 145.91 472.813 144.558C472.92 143.191 473.028 141.862 473.135 140.571C473.258 139.28 473.389 138.059 473.527 136.907H475.486C475.901 137.583 476.347 138.382 476.823 139.304C477.299 140.225 477.775 141.193 478.252 142.207C478.728 143.206 479.189 144.212 479.634 145.226C480.08 146.225 480.487 147.139 480.856 147.969C481.225 147.139 481.632 146.225 482.077 145.226C482.523 144.212 482.984 143.206 483.46 142.207C483.936 141.193 484.413 140.225 484.889 139.304C485.365 138.382 485.811 137.583 486.226 136.907H488.184C488.707 142.054 489.099 147.377 489.36 152.878H487.17C487.094 150.727 487.001 148.599 486.894 146.494C486.786 144.374 486.648 142.407 486.479 140.594C486.325 140.855 486.118 141.232 485.857 141.723C485.611 142.215 485.342 142.776 485.05 143.406C484.758 144.02 484.443 144.681 484.105 145.388C483.783 146.079 483.475 146.755 483.183 147.416C482.892 148.076 482.615 148.691 482.354 149.259C482.108 149.828 481.908 150.296 481.755 150.665H479.957Z" fill="white" fill-opacity="0.8"/>
<path d="M49.3443 316.892C49.3443 313.773 49.891 311.371 50.9844 309.686C52.0958 308.001 53.6283 307.159 55.5821 307.159C57.5359 307.159 59.0595 308.001 60.1529 309.686C61.2642 311.371 61.8198 313.773 61.8198 316.892C61.8198 320.011 61.2642 322.413 60.1529 324.098C59.0595 325.783 57.5359 326.625 55.5821 326.625C53.6283 326.625 52.0958 325.783 50.9844 324.098C49.891 322.413 49.3443 320.011 49.3443 316.892ZM59.1849 316.892C59.1849 315.87 59.1222 314.902 58.9967 313.988C58.8892 313.074 58.692 312.276 58.4052 311.595C58.1363 310.914 57.7689 310.376 57.3028 309.982C56.8368 309.57 56.2632 309.364 55.5821 309.364C54.901 309.364 54.3274 309.57 53.8613 309.982C53.3953 310.376 53.0189 310.914 52.7321 311.595C52.4632 312.276 52.266 313.074 52.1406 313.988C52.033 314.902 51.9793 315.87 51.9793 316.892C51.9793 317.914 52.033 318.882 52.1406 319.796C52.266 320.71 52.4632 321.508 52.7321 322.189C53.0189 322.87 53.3953 323.416 53.8613 323.829C54.3274 324.223 54.901 324.42 55.5821 324.42C56.2632 324.42 56.8368 324.223 57.3028 323.829C57.7689 323.416 58.1363 322.87 58.4052 322.189C58.692 321.508 58.8892 320.71 58.9967 319.796C59.1222 318.882 59.1849 317.914 59.1849 316.892ZM76.6467 315.037C76.6467 318.729 75.7236 321.525 73.8773 323.425C72.049 325.308 69.3245 326.258 65.7037 326.275L65.6231 324.178C66.7523 324.178 67.7651 324.071 68.6613 323.856C69.5754 323.641 70.3731 323.3 71.0542 322.834C71.7353 322.35 72.3 321.732 72.7481 320.979C73.2141 320.226 73.5547 319.303 73.7698 318.209C73.3037 318.424 72.775 318.604 72.1835 318.747C71.5919 318.873 70.9825 318.935 70.3552 318.935C69.2976 318.935 68.4014 318.783 67.6665 318.478C66.9316 318.156 66.3311 317.734 65.8651 317.215C65.399 316.677 65.0584 316.067 64.8434 315.386C64.6462 314.687 64.5476 313.961 64.5476 313.208C64.5476 312.545 64.6641 311.855 64.8971 311.138C65.1301 310.421 65.4797 309.767 65.9457 309.175C66.4297 308.584 67.0391 308.1 67.774 307.724C68.5089 307.347 69.3783 307.159 70.382 307.159C71.4037 307.159 72.3 307.338 73.0707 307.697C73.8594 308.055 74.5137 308.575 75.0335 309.256C75.5712 309.937 75.9745 310.771 76.2434 311.757C76.5122 312.724 76.6467 313.818 76.6467 315.037ZM70.624 316.892C71.2514 316.892 71.8429 316.838 72.3986 316.731C72.9542 316.605 73.492 316.426 74.0118 316.193C74.0297 315.996 74.0387 315.808 74.0387 315.628C74.0387 315.431 74.0387 315.234 74.0387 315.037C74.0387 314.266 73.9849 313.531 73.8773 312.832C73.7698 312.115 73.5726 311.497 73.2858 310.977C73.017 310.439 72.6495 310.018 72.1835 309.713C71.7174 309.391 71.1259 309.229 70.4089 309.229C69.8174 309.229 69.3155 309.355 68.9033 309.606C68.491 309.857 68.1504 310.179 67.8816 310.574C67.6127 310.95 67.4155 311.371 67.2901 311.837C67.1825 312.285 67.1287 312.724 67.1287 313.155C67.1287 314.374 67.4155 315.306 67.9891 315.951C68.5806 316.578 69.4589 316.892 70.624 316.892ZM83.4612 324.77C83.4612 325.254 83.2999 325.675 82.9773 326.033C82.6546 326.392 82.2155 326.571 81.6598 326.571C81.1042 326.571 80.665 326.392 80.3424 326.033C80.0197 325.675 79.8584 325.254 79.8584 324.77C79.8584 324.286 80.0197 323.865 80.3424 323.506C80.665 323.148 81.1042 322.968 81.6598 322.968C82.2155 322.968 82.6546 323.148 82.9773 323.506C83.2999 323.865 83.4612 324.286 83.4612 324.77ZM83.4612 314.042C83.4612 314.526 83.2999 314.947 82.9773 315.306C82.6546 315.664 82.2155 315.843 81.6598 315.843C81.1042 315.843 80.665 315.664 80.3424 315.306C80.0197 314.947 79.8584 314.526 79.8584 314.042C79.8584 313.558 80.0197 313.137 80.3424 312.778C80.665 312.42 81.1042 312.241 81.6598 312.241C82.2155 312.241 82.6546 312.42 82.9773 312.778C83.2999 313.137 83.4612 313.558 83.4612 314.042ZM91.0458 324.393C92.6411 324.393 93.7793 324.08 94.4605 323.452C95.1595 322.825 95.5091 321.983 95.5091 320.925C95.5091 320.244 95.3657 319.67 95.0789 319.204C94.7921 318.738 94.4157 318.371 93.9496 318.102C93.4836 317.815 92.9369 317.618 92.3095 317.51C91.7001 317.385 91.0727 317.322 90.4274 317.322H89.7822V315.279H90.6694C91.1175 315.279 91.5746 315.234 92.0407 315.144C92.5246 315.055 92.9638 314.893 93.3581 314.66C93.7525 314.427 94.0751 314.114 94.326 313.719C94.577 313.307 94.7025 312.796 94.7025 312.187C94.7025 311.685 94.6128 311.255 94.4336 310.896C94.2543 310.538 94.0124 310.242 93.7076 310.009C93.4209 309.776 93.0803 309.615 92.6859 309.525C92.3095 309.417 91.9062 309.364 91.476 309.364C90.6157 309.364 89.8807 309.489 89.2713 309.74C88.6798 309.991 88.1779 310.251 87.7656 310.52L86.7977 308.611C87.0128 308.467 87.2817 308.315 87.6043 308.154C87.9449 307.974 88.3213 307.813 88.7336 307.67C89.1458 307.526 89.585 307.41 90.051 307.32C90.535 307.213 91.0369 307.159 91.5567 307.159C92.5425 307.159 93.394 307.284 94.1109 307.535C94.8279 307.768 95.4194 308.109 95.8855 308.557C96.3515 308.987 96.701 309.507 96.9341 310.116C97.1671 310.708 97.2836 311.353 97.2836 312.052C97.2836 313.02 97.0058 313.854 96.4501 314.553C95.8944 315.234 95.2223 315.754 94.4336 316.112C94.9176 316.256 95.3836 316.462 95.8317 316.731C96.2798 316.999 96.6652 317.34 96.9878 317.752C97.3284 318.165 97.5973 318.64 97.7944 319.177C98.0095 319.715 98.1171 320.316 98.1171 320.979C98.1171 321.785 97.9737 322.538 97.6869 323.237C97.418 323.918 96.9878 324.51 96.3963 325.012C95.8227 325.514 95.0968 325.908 94.2185 326.195C93.3402 326.482 92.3006 326.625 91.0996 326.625C90.6336 326.625 90.1496 326.589 89.6477 326.517C89.1638 326.446 88.7067 326.356 88.2765 326.249C87.8463 326.141 87.4699 326.033 87.1473 325.926C86.8246 325.818 86.5916 325.729 86.4482 325.657L86.9322 323.479C87.2369 323.623 87.7388 323.811 88.4378 324.044C89.1548 324.277 90.0241 324.393 91.0458 324.393ZM101.49 316.892C101.49 313.773 102.037 311.371 103.13 309.686C104.242 308.001 105.774 307.159 107.728 307.159C109.682 307.159 111.205 308.001 112.299 309.686C113.41 311.371 113.966 313.773 113.966 316.892C113.966 320.011 113.41 322.413 112.299 324.098C111.205 325.783 109.682 326.625 107.728 326.625C105.774 326.625 104.242 325.783 103.13 324.098C102.037 322.413 101.49 320.011 101.49 316.892ZM111.331 316.892C111.331 315.87 111.268 314.902 111.143 313.988C111.035 313.074 110.838 312.276 110.551 311.595C110.282 310.914 109.915 310.376 109.449 309.982C108.983 309.57 108.409 309.364 107.728 309.364C107.047 309.364 106.473 309.57 106.007 309.982C105.541 310.376 105.165 310.914 104.878 311.595C104.609 312.276 104.412 313.074 104.286 313.988C104.179 314.902 104.125 315.87 104.125 316.892C104.125 317.914 104.179 318.882 104.286 319.796C104.412 320.71 104.609 321.508 104.878 322.189C105.165 322.87 105.541 323.416 106.007 323.829C106.473 324.223 107.047 324.42 107.728 324.42C108.409 324.42 108.983 324.223 109.449 323.829C109.915 323.416 110.282 322.87 110.551 322.189C110.838 321.508 111.035 320.71 111.143 319.796C111.268 318.882 111.331 317.914 111.331 316.892ZM130.083 326.222C129.778 325.415 129.492 324.626 129.223 323.856C128.954 323.067 128.676 322.269 128.389 321.463H119.947L118.253 326.222H115.537C116.254 324.25 116.926 322.431 117.554 320.764C118.181 319.079 118.791 317.483 119.382 315.978C119.992 314.472 120.592 313.038 121.183 311.676C121.775 310.296 122.393 308.933 123.039 307.589H125.432C126.077 308.933 126.695 310.296 127.287 311.676C127.878 313.038 128.47 314.472 129.061 315.978C129.671 317.483 130.289 319.079 130.917 320.764C131.544 322.431 132.216 324.25 132.933 326.222H130.083ZM127.636 319.312C127.063 317.752 126.489 316.247 125.916 314.795C125.36 313.325 124.777 311.918 124.168 310.574C123.541 311.918 122.94 313.325 122.367 314.795C121.811 316.247 121.255 317.752 120.7 319.312H127.636ZM143.825 323.641C143.645 323.21 143.403 322.664 143.099 322C142.812 321.337 142.498 320.62 142.158 319.849C141.817 319.079 141.45 318.29 141.055 317.483C140.679 316.659 140.32 315.888 139.98 315.171C139.639 314.436 139.316 313.782 139.012 313.208C138.725 312.635 138.492 312.196 138.313 311.891C138.116 314.006 137.954 316.3 137.829 318.774C137.703 321.23 137.596 323.712 137.506 326.222H134.952C135.024 324.608 135.104 322.986 135.194 321.355C135.283 319.706 135.382 318.093 135.49 316.516C135.615 314.92 135.741 313.37 135.866 311.864C136.009 310.358 136.162 308.933 136.323 307.589H138.608C139.092 308.378 139.612 309.31 140.168 310.385C140.724 311.461 141.279 312.59 141.835 313.773C142.391 314.938 142.928 316.112 143.448 317.295C143.968 318.46 144.443 319.527 144.873 320.495C145.303 319.527 145.778 318.46 146.298 317.295C146.818 316.112 147.356 314.938 147.911 313.773C148.467 312.59 149.023 311.461 149.578 310.385C150.134 309.31 150.654 308.378 151.138 307.589H153.423C154.033 313.594 154.49 319.805 154.794 326.222H152.24C152.15 323.712 152.043 321.23 151.917 318.774C151.792 316.3 151.631 314.006 151.433 311.891C151.254 312.196 151.012 312.635 150.708 313.208C150.421 313.782 150.107 314.436 149.767 315.171C149.426 315.888 149.058 316.659 148.664 317.483C148.288 318.29 147.929 319.079 147.589 319.849C147.248 320.62 146.925 321.337 146.621 322C146.334 322.664 146.101 323.21 145.922 323.641H143.825Z" fill="#A8B0BF"/>
<circle cx="185.315" cy="316.722" r="5.76147" fill="white" stroke="#775BFB" stroke-width="1.92049"/>
<rect x="207.401" y="247.584" width="468.599" height="138.275" rx="30.7278" fill="#775BFB"/>
<path d="M244.616 282.799C244.903 283.767 245.207 284.78 245.53 285.838C245.853 286.877 246.184 287.926 246.525 288.983C246.883 290.023 247.233 291.054 247.573 292.075C247.932 293.079 248.273 294.029 248.595 294.925C248.864 293.957 249.124 292.909 249.375 291.78C249.626 290.632 249.877 289.449 250.128 288.231C250.379 286.994 250.621 285.739 250.854 284.466C251.105 283.194 251.338 281.939 251.553 280.702H255.048C254.421 284.072 253.722 287.316 252.951 290.435C252.18 293.536 251.32 296.503 250.37 299.335H247.143C245.745 295.714 244.392 291.762 243.083 287.478C242.42 289.647 241.748 291.708 241.067 293.662C240.386 295.615 239.705 297.507 239.023 299.335H235.797C234.829 296.503 233.96 293.536 233.189 290.435C232.436 287.316 231.746 284.072 231.119 280.702H234.748C234.964 281.921 235.188 283.167 235.421 284.44C235.672 285.712 235.922 286.967 236.173 288.204C236.442 289.423 236.711 290.606 236.98 291.753C237.249 292.9 237.518 293.957 237.787 294.925C238.127 294.011 238.468 293.052 238.808 292.049C239.167 291.027 239.516 289.996 239.857 288.957C240.197 287.899 240.52 286.85 240.825 285.811C241.147 284.771 241.443 283.767 241.712 282.799H244.616ZM261.03 299.335H257.776V285.273H261.03V299.335ZM261.379 281.159C261.379 281.769 261.182 282.253 260.788 282.611C260.393 282.97 259.927 283.149 259.39 283.149C258.834 283.149 258.359 282.97 257.965 282.611C257.57 282.253 257.373 281.769 257.373 281.159C257.373 280.532 257.57 280.039 257.965 279.681C258.359 279.322 258.834 279.143 259.39 279.143C259.927 279.143 260.393 279.322 260.788 279.681C261.182 280.039 261.379 280.532 261.379 281.159ZM273.192 288.204C272.924 288.114 272.547 288.024 272.063 287.935C271.597 287.827 271.05 287.773 270.423 287.773C270.065 287.773 269.679 287.809 269.267 287.881C268.873 287.953 268.595 288.015 268.433 288.069V299.335H265.18V285.945C265.807 285.712 266.587 285.497 267.519 285.3C268.469 285.085 269.518 284.977 270.665 284.977C270.88 284.977 271.131 284.995 271.418 285.031C271.705 285.049 271.991 285.085 272.278 285.139C272.565 285.174 272.843 285.228 273.112 285.3C273.381 285.354 273.596 285.407 273.757 285.461L273.192 288.204ZM275.244 292.371C275.244 291.134 275.424 290.05 275.782 289.118C276.159 288.186 276.652 287.415 277.261 286.806C277.87 286.178 278.569 285.712 279.358 285.407C280.147 285.085 280.953 284.923 281.778 284.923C283.714 284.923 285.219 285.524 286.295 286.725C287.388 287.926 287.935 289.718 287.935 292.102C287.935 292.282 287.926 292.488 287.908 292.721C287.908 292.936 287.899 293.133 287.881 293.312H278.605C278.695 294.441 279.089 295.32 279.788 295.947C280.505 296.557 281.536 296.861 282.88 296.861C283.669 296.861 284.386 296.79 285.031 296.646C285.694 296.503 286.214 296.35 286.591 296.189L287.021 298.851C286.842 298.94 286.591 299.039 286.268 299.147C285.963 299.236 285.605 299.317 285.193 299.389C284.798 299.478 284.368 299.55 283.902 299.604C283.436 299.657 282.961 299.684 282.477 299.684C281.24 299.684 280.165 299.505 279.251 299.147C278.336 298.77 277.584 298.259 276.992 297.614C276.401 296.951 275.961 296.18 275.675 295.302C275.388 294.406 275.244 293.429 275.244 292.371ZM284.682 290.919C284.682 290.471 284.619 290.05 284.494 289.656C284.368 289.243 284.18 288.894 283.929 288.607C283.696 288.302 283.4 288.069 283.042 287.908C282.701 287.729 282.289 287.639 281.805 287.639C281.303 287.639 280.864 287.738 280.487 287.935C280.111 288.114 279.788 288.356 279.519 288.661C279.268 288.965 279.071 289.315 278.928 289.709C278.785 290.104 278.686 290.507 278.632 290.919H284.682ZM297.111 278.471C297.864 278.471 298.527 278.542 299.101 278.686C299.674 278.811 300.105 278.928 300.391 279.035L299.773 281.724C299.468 281.581 299.11 281.464 298.698 281.374C298.303 281.285 297.873 281.24 297.407 281.24C296.887 281.24 296.448 281.321 296.09 281.482C295.731 281.625 295.444 281.831 295.229 282.1C295.014 282.369 294.862 282.701 294.772 283.095C294.682 283.472 294.638 283.884 294.638 284.332V285.273H299.746V287.989H294.638V299.335H291.384V284.278C291.384 282.468 291.859 281.052 292.809 280.03C293.759 278.99 295.193 278.471 297.111 278.471ZM310.162 288.204C309.893 288.114 309.517 288.024 309.033 287.935C308.567 287.827 308.02 287.773 307.392 287.773C307.034 287.773 306.649 287.809 306.236 287.881C305.842 287.953 305.564 288.015 305.403 288.069V299.335H302.15V285.945C302.777 285.712 303.557 285.497 304.489 285.3C305.439 285.085 306.487 284.977 307.634 284.977C307.85 284.977 308.101 284.995 308.387 285.031C308.674 285.049 308.961 285.085 309.248 285.139C309.534 285.174 309.812 285.228 310.081 285.3C310.35 285.354 310.565 285.407 310.726 285.461L310.162 288.204ZM317.941 297.049C318.945 297.049 319.706 296.996 320.226 296.888V293.285C320.047 293.232 319.787 293.178 319.446 293.124C319.106 293.07 318.729 293.043 318.317 293.043C317.959 293.043 317.591 293.07 317.215 293.124C316.856 293.178 316.525 293.276 316.22 293.42C315.933 293.563 315.7 293.769 315.521 294.038C315.342 294.289 315.252 294.612 315.252 295.006C315.252 295.777 315.494 296.315 315.978 296.619C316.462 296.906 317.116 297.049 317.941 297.049ZM317.672 284.923C318.747 284.923 319.653 285.058 320.387 285.327C321.122 285.596 321.705 285.972 322.135 286.456C322.583 286.94 322.897 287.532 323.076 288.231C323.273 288.912 323.372 289.665 323.372 290.489V299.012C322.87 299.12 322.108 299.245 321.087 299.389C320.083 299.55 318.945 299.631 317.672 299.631C316.829 299.631 316.059 299.55 315.36 299.389C314.661 299.227 314.06 298.967 313.558 298.609C313.074 298.25 312.689 297.784 312.402 297.211C312.133 296.637 311.999 295.929 311.999 295.087C311.999 294.28 312.151 293.599 312.456 293.043C312.778 292.488 313.209 292.04 313.746 291.699C314.284 291.34 314.903 291.09 315.602 290.946C316.319 290.785 317.062 290.704 317.833 290.704C318.192 290.704 318.568 290.731 318.962 290.785C319.357 290.821 319.778 290.892 320.226 291V290.462C320.226 290.086 320.181 289.727 320.092 289.387C320.002 289.046 319.841 288.75 319.608 288.499C319.393 288.231 319.097 288.024 318.72 287.881C318.362 287.738 317.905 287.666 317.349 287.666C316.596 287.666 315.906 287.72 315.279 287.827C314.652 287.935 314.141 288.06 313.746 288.204L313.343 285.569C313.755 285.425 314.356 285.282 315.145 285.139C315.933 284.995 316.776 284.923 317.672 284.923ZM335.368 291.941C335.368 290.471 335.18 289.414 334.804 288.768C334.445 288.105 333.764 287.773 332.76 287.773C332.402 287.773 332.007 287.8 331.577 287.854C331.147 287.908 330.824 287.953 330.609 287.989V299.335H327.356V285.73C327.983 285.551 328.799 285.381 329.803 285.219C330.824 285.058 331.9 284.977 333.029 284.977C333.997 284.977 334.786 285.103 335.395 285.354C336.023 285.605 336.542 285.936 336.955 286.348C337.152 286.205 337.403 286.053 337.707 285.891C338.012 285.73 338.353 285.587 338.729 285.461C339.106 285.318 339.5 285.201 339.912 285.112C340.342 285.022 340.773 284.977 341.203 284.977C342.296 284.977 343.192 285.139 343.891 285.461C344.608 285.766 345.164 286.205 345.558 286.779C345.971 287.334 346.248 288.015 346.392 288.822C346.553 289.611 346.634 290.48 346.634 291.43V299.335H343.381V291.941C343.381 290.471 343.201 289.414 342.843 288.768C342.484 288.105 341.794 287.773 340.773 287.773C340.253 287.773 339.76 287.863 339.294 288.042C338.828 288.204 338.478 288.365 338.245 288.526C338.389 288.974 338.487 289.449 338.541 289.951C338.595 290.453 338.622 290.991 338.622 291.565V299.335H335.368V291.941ZM353.9 299.335H350.646V285.273H353.9V299.335ZM354.249 281.159C354.249 281.769 354.052 282.253 353.658 282.611C353.263 282.97 352.797 283.149 352.26 283.149C351.704 283.149 351.229 282.97 350.835 282.611C350.44 282.253 350.243 281.769 350.243 281.159C350.243 280.532 350.44 280.039 350.835 279.681C351.229 279.322 351.704 279.143 352.26 279.143C352.797 279.143 353.263 279.322 353.658 279.681C354.052 280.039 354.249 280.532 354.249 281.159ZM358.05 285.73C358.677 285.551 359.493 285.381 360.497 285.219C361.501 285.058 362.612 284.977 363.831 284.977C364.978 284.977 365.937 285.139 366.708 285.461C367.478 285.766 368.088 286.205 368.536 286.779C369.002 287.334 369.325 288.015 369.504 288.822C369.701 289.611 369.8 290.48 369.8 291.43V299.335H366.546V291.941C366.546 291.188 366.493 290.552 366.385 290.032C366.295 289.494 366.134 289.064 365.901 288.741C365.686 288.401 365.381 288.159 364.987 288.015C364.61 287.854 364.144 287.773 363.589 287.773C363.176 287.773 362.746 287.8 362.298 287.854C361.85 287.908 361.518 287.953 361.303 287.989V299.335H358.05V285.73ZM376.332 291.941C376.332 293.321 376.628 294.334 377.219 294.979C377.829 295.607 378.608 295.92 379.558 295.92C380.078 295.92 380.562 295.849 381.01 295.705C381.476 295.562 381.853 295.391 382.14 295.194V287.908C381.907 287.854 381.62 287.809 381.279 287.773C380.939 287.72 380.508 287.693 379.989 287.693C378.806 287.693 377.9 288.087 377.273 288.876C376.646 289.647 376.332 290.668 376.332 291.941ZM385.393 297.91C385.393 300.15 384.819 301.791 383.672 302.83C382.543 303.87 380.804 304.39 378.456 304.39C377.596 304.39 376.753 304.318 375.929 304.174C375.122 304.031 374.387 303.843 373.724 303.61L374.316 300.841C374.871 301.074 375.499 301.262 376.198 301.405C376.915 301.549 377.685 301.62 378.51 301.62C379.818 301.62 380.75 301.351 381.306 300.814C381.862 300.276 382.14 299.478 382.14 298.421V297.883C381.817 298.044 381.387 298.206 380.849 298.367C380.329 298.528 379.729 298.609 379.048 298.609C378.151 298.609 377.327 298.465 376.574 298.179C375.839 297.892 375.203 297.471 374.665 296.915C374.145 296.359 373.733 295.669 373.428 294.845C373.141 294.002 372.998 293.034 372.998 291.941C372.998 290.919 373.15 289.978 373.455 289.118C373.778 288.257 374.235 287.523 374.826 286.913C375.436 286.304 376.171 285.829 377.031 285.488C377.891 285.148 378.868 284.977 379.962 284.977C381.019 284.977 382.023 285.058 382.973 285.219C383.923 285.381 384.73 285.551 385.393 285.73V297.91Z" fill="white"/>
<path d="M643.204 283.721H633.234H624.255C622.719 283.721 621.951 285.578 623.039 286.666L631.329 294.956C632.657 296.284 634.818 296.284 636.146 294.956L639.299 291.803L644.436 286.666C645.509 285.578 644.741 283.721 643.204 283.721Z" fill="white"/>
<rect x="230.447" y="324.404" width="38.4098" height="38.4098" rx="19.2049" fill="white" fill-opacity="0.2"/>
<path d="M249.643 334.006C244.352 334.006 240.04 338.317 240.04 343.608C240.04 348.899 244.352 353.211 249.643 353.211C254.934 353.211 259.245 348.899 259.245 343.608C259.245 338.317 254.934 334.006 249.643 334.006ZM253.82 347.036C253.685 347.267 253.445 347.392 253.196 347.392C253.071 347.392 252.946 347.363 252.831 347.286L249.854 345.51C249.115 345.068 248.567 344.098 248.567 343.243V339.306C248.567 338.913 248.894 338.586 249.287 338.586C249.681 338.586 250.008 338.913 250.008 339.306V343.243C250.008 343.589 250.296 344.098 250.593 344.271L253.57 346.047C253.916 346.249 254.031 346.691 253.82 347.036Z" fill="white"/>
<path d="M277.691 344.612C277.691 341.938 278.159 339.88 279.096 338.435C280.049 336.991 281.363 336.269 283.037 336.269C284.712 336.269 286.018 336.991 286.955 338.435C287.908 339.88 288.384 341.938 288.384 344.612C288.384 347.285 287.908 349.344 286.955 350.788C286.018 352.232 284.712 352.954 283.037 352.954C281.363 352.954 280.049 352.232 279.096 350.788C278.159 349.344 277.691 347.285 277.691 344.612ZM286.125 344.612C286.125 343.736 286.072 342.906 285.964 342.123C285.872 341.339 285.703 340.655 285.457 340.072C285.227 339.488 284.912 339.027 284.512 338.689C284.113 338.335 283.621 338.159 283.037 338.159C282.453 338.159 281.962 338.335 281.562 338.689C281.163 339.027 280.84 339.488 280.594 340.072C280.364 340.655 280.195 341.339 280.087 342.123C279.995 342.906 279.949 343.736 279.949 344.612C279.949 345.487 279.995 346.317 280.087 347.101C280.195 347.884 280.364 348.568 280.594 349.152C280.84 349.735 281.163 350.204 281.562 350.557C281.962 350.895 282.453 351.064 283.037 351.064C283.621 351.064 284.113 350.895 284.512 350.557C284.912 350.204 285.227 349.735 285.457 349.152C285.703 348.568 285.872 347.884 285.964 347.101C286.072 346.317 286.125 345.487 286.125 344.612ZM301.093 343.021C301.093 346.186 300.301 348.583 298.719 350.212C297.152 351.825 294.816 352.639 291.713 352.655L291.644 350.857C292.612 350.857 293.48 350.765 294.248 350.58C295.032 350.396 295.715 350.104 296.299 349.705C296.883 349.29 297.367 348.76 297.751 348.115C298.15 347.469 298.442 346.678 298.627 345.741C298.227 345.925 297.774 346.079 297.267 346.202C296.76 346.309 296.238 346.363 295.7 346.363C294.793 346.363 294.025 346.232 293.395 345.971C292.765 345.695 292.251 345.334 291.851 344.888C291.452 344.427 291.16 343.905 290.975 343.321C290.806 342.722 290.722 342.1 290.722 341.454C290.722 340.886 290.822 340.294 291.022 339.68C291.221 339.065 291.521 338.504 291.92 337.997C292.335 337.49 292.858 337.076 293.487 336.753C294.117 336.43 294.863 336.269 295.723 336.269C296.599 336.269 297.367 336.423 298.028 336.73C298.704 337.037 299.264 337.483 299.71 338.067C300.171 338.65 300.516 339.365 300.747 340.21C300.977 341.039 301.093 341.977 301.093 343.021ZM295.93 344.612C296.468 344.612 296.975 344.566 297.451 344.473C297.928 344.366 298.389 344.212 298.834 344.012C298.849 343.843 298.857 343.682 298.857 343.528C298.857 343.359 298.857 343.19 298.857 343.021C298.857 342.361 298.811 341.731 298.719 341.132C298.627 340.517 298.458 339.987 298.212 339.542C297.981 339.081 297.666 338.72 297.267 338.458C296.868 338.182 296.361 338.044 295.746 338.044C295.239 338.044 294.809 338.151 294.455 338.366C294.102 338.581 293.81 338.858 293.58 339.196C293.349 339.518 293.18 339.88 293.073 340.279C292.98 340.663 292.934 341.039 292.934 341.408C292.934 342.453 293.18 343.252 293.672 343.805C294.179 344.343 294.932 344.612 295.93 344.612ZM306.934 351.364C306.934 351.779 306.795 352.14 306.519 352.447C306.242 352.754 305.866 352.908 305.39 352.908C304.913 352.908 304.537 352.754 304.26 352.447C303.984 352.14 303.846 351.779 303.846 351.364C303.846 350.949 303.984 350.588 304.26 350.281C304.537 349.974 304.913 349.82 305.39 349.82C305.866 349.82 306.242 349.974 306.519 350.281C306.795 350.588 306.934 350.949 306.934 351.364ZM306.934 342.169C306.934 342.584 306.795 342.945 306.519 343.252C306.242 343.559 305.866 343.713 305.39 343.713C304.913 343.713 304.537 343.559 304.26 343.252C303.984 342.945 303.846 342.584 303.846 342.169C303.846 341.754 303.984 341.393 304.26 341.086C304.537 340.778 304.913 340.625 305.39 340.625C305.866 340.625 306.242 340.778 306.519 341.086C306.795 341.393 306.934 341.754 306.934 342.169ZM313.435 351.041C314.802 351.041 315.778 350.773 316.362 350.235C316.961 349.697 317.26 348.975 317.26 348.068C317.26 347.485 317.137 346.993 316.892 346.594C316.646 346.194 316.323 345.879 315.924 345.649C315.524 345.403 315.056 345.234 314.518 345.142C313.996 345.034 313.458 344.98 312.905 344.98H312.352V343.229H313.112C313.496 343.229 313.888 343.19 314.287 343.114C314.702 343.037 315.079 342.899 315.417 342.699C315.755 342.499 316.031 342.23 316.246 341.892C316.461 341.539 316.569 341.101 316.569 340.579C316.569 340.148 316.492 339.78 316.339 339.472C316.185 339.165 315.977 338.912 315.716 338.712C315.47 338.512 315.179 338.374 314.841 338.297C314.518 338.205 314.172 338.159 313.804 338.159C313.066 338.159 312.436 338.266 311.914 338.481C311.407 338.696 310.977 338.919 310.623 339.15L309.794 337.513C309.978 337.391 310.208 337.26 310.485 337.122C310.777 336.968 311.099 336.83 311.453 336.707C311.806 336.584 312.183 336.484 312.582 336.407C312.997 336.315 313.427 336.269 313.873 336.269C314.718 336.269 315.447 336.377 316.062 336.592C316.677 336.791 317.184 337.083 317.583 337.467C317.982 337.836 318.282 338.282 318.482 338.804C318.682 339.311 318.781 339.864 318.781 340.463C318.781 341.293 318.543 342.007 318.067 342.607C317.591 343.19 317.015 343.636 316.339 343.943C316.753 344.066 317.153 344.243 317.537 344.473C317.921 344.704 318.251 344.996 318.528 345.349C318.82 345.702 319.05 346.11 319.219 346.571C319.404 347.031 319.496 347.546 319.496 348.115C319.496 348.806 319.373 349.451 319.127 350.05C318.897 350.634 318.528 351.141 318.021 351.571C317.529 352.002 316.907 352.34 316.154 352.585C315.401 352.831 314.51 352.954 313.481 352.954C313.081 352.954 312.667 352.923 312.236 352.862C311.822 352.801 311.43 352.724 311.061 352.632C310.692 352.539 310.37 352.447 310.093 352.355C309.817 352.263 309.617 352.186 309.494 352.125L309.909 350.258C310.17 350.381 310.6 350.542 311.199 350.742C311.814 350.942 312.559 351.041 313.435 351.041ZM322.387 344.612C322.387 341.938 322.856 339.88 323.793 338.435C324.745 336.991 326.059 336.269 327.734 336.269C329.408 336.269 330.714 336.991 331.651 338.435C332.604 339.88 333.08 341.938 333.08 344.612C333.08 347.285 332.604 349.344 331.651 350.788C330.714 352.232 329.408 352.954 327.734 352.954C326.059 352.954 324.745 352.232 323.793 350.788C322.856 349.344 322.387 347.285 322.387 344.612ZM330.822 344.612C330.822 343.736 330.768 342.906 330.66 342.123C330.568 341.339 330.399 340.655 330.153 340.072C329.923 339.488 329.608 339.027 329.209 338.689C328.809 338.335 328.317 338.159 327.734 338.159C327.15 338.159 326.658 338.335 326.259 338.689C325.859 339.027 325.537 339.488 325.291 340.072C325.06 340.655 324.891 341.339 324.784 342.123C324.692 342.906 324.646 343.736 324.646 344.612C324.646 345.487 324.692 346.317 324.784 347.101C324.891 347.884 325.06 348.568 325.291 349.152C325.537 349.735 325.859 350.204 326.259 350.557C326.658 350.895 327.15 351.064 327.734 351.064C328.317 351.064 328.809 350.895 329.209 350.557C329.608 350.204 329.923 349.735 330.153 349.152C330.399 348.568 330.568 347.884 330.66 347.101C330.768 346.317 330.822 345.487 330.822 344.612ZM352.229 352.609C351.968 351.917 351.722 351.241 351.492 350.58C351.261 349.904 351.023 349.221 350.777 348.529H343.541L342.089 352.609H339.761C340.376 350.918 340.952 349.359 341.49 347.93C342.027 346.486 342.55 345.119 343.057 343.828C343.579 342.537 344.094 341.308 344.601 340.141C345.108 338.958 345.638 337.79 346.191 336.638H348.242C348.795 337.79 349.325 338.958 349.832 340.141C350.339 341.308 350.846 342.537 351.353 343.828C351.876 345.119 352.406 346.486 352.943 347.93C353.481 349.359 354.057 350.918 354.672 352.609H352.229ZM350.132 346.686C349.64 345.349 349.149 344.059 348.657 342.814C348.181 341.554 347.681 340.348 347.159 339.196C346.621 340.348 346.107 341.554 345.615 342.814C345.139 344.059 344.662 345.349 344.186 346.686H350.132ZM364.007 350.396C363.854 350.027 363.646 349.559 363.385 348.99C363.139 348.422 362.871 347.807 362.579 347.147C362.287 346.486 361.972 345.81 361.634 345.119C361.311 344.412 361.004 343.751 360.712 343.137C360.42 342.507 360.143 341.946 359.882 341.454C359.636 340.963 359.437 340.586 359.283 340.325C359.114 342.138 358.976 344.105 358.868 346.225C358.761 348.33 358.669 350.458 358.592 352.609H356.402C356.464 351.226 356.533 349.835 356.61 348.437C356.687 347.024 356.771 345.641 356.863 344.289C356.971 342.922 357.078 341.593 357.186 340.302C357.309 339.011 357.439 337.79 357.578 336.638H359.537C359.951 337.314 360.397 338.113 360.873 339.035C361.35 339.956 361.826 340.924 362.302 341.938C362.778 342.937 363.239 343.943 363.685 344.957C364.13 345.956 364.538 346.87 364.906 347.7C365.275 346.87 365.682 345.956 366.128 344.957C366.573 343.943 367.034 342.937 367.51 341.938C367.987 340.924 368.463 339.956 368.939 339.035C369.416 338.113 369.861 337.314 370.276 336.638H372.235C372.757 341.785 373.149 347.108 373.41 352.609H371.221C371.144 350.458 371.052 348.33 370.944 346.225C370.837 344.105 370.698 342.138 370.529 340.325C370.376 340.586 370.168 340.963 369.907 341.454C369.661 341.946 369.393 342.507 369.101 343.137C368.809 343.751 368.494 344.412 368.156 345.119C367.833 345.81 367.526 346.486 367.234 347.147C366.942 347.807 366.665 348.422 366.404 348.99C366.158 349.559 365.959 350.027 365.805 350.396H364.007ZM380.866 344.704H386.559V346.709H380.866V344.704ZM393.64 344.612C393.64 341.938 394.109 339.88 395.046 338.435C395.999 336.991 397.312 336.269 398.987 336.269C400.661 336.269 401.967 336.991 402.905 338.435C403.857 339.88 404.333 341.938 404.333 344.612C404.333 347.285 403.857 349.344 402.905 350.788C401.967 352.232 400.661 352.954 398.987 352.954C397.312 352.954 395.999 352.232 395.046 350.788C394.109 349.344 393.64 347.285 393.64 344.612ZM402.075 344.612C402.075 343.736 402.021 342.906 401.914 342.123C401.821 341.339 401.652 340.655 401.407 340.072C401.176 339.488 400.861 339.027 400.462 338.689C400.062 338.335 399.571 338.159 398.987 338.159C398.403 338.159 397.911 338.335 397.512 338.689C397.112 339.027 396.79 339.488 396.544 340.072C396.313 340.655 396.144 341.339 396.037 342.123C395.945 342.906 395.899 343.736 395.899 344.612C395.899 345.487 395.945 346.317 396.037 347.101C396.144 347.884 396.313 348.568 396.544 349.152C396.79 349.735 397.112 350.204 397.512 350.557C397.911 350.895 398.403 351.064 398.987 351.064C399.571 351.064 400.062 350.895 400.462 350.557C400.861 350.204 401.176 349.735 401.407 349.152C401.652 348.568 401.821 347.884 401.914 347.101C402.021 346.317 402.075 345.487 402.075 344.612ZM406.648 344.612C406.648 341.938 407.117 339.88 408.054 338.435C409.007 336.991 410.32 336.269 411.995 336.269C413.67 336.269 414.976 336.991 415.913 338.435C416.865 339.88 417.342 341.938 417.342 344.612C417.342 347.285 416.865 349.344 415.913 350.788C414.976 352.232 413.67 352.954 411.995 352.954C410.32 352.954 409.007 352.232 408.054 350.788C407.117 349.344 406.648 347.285 406.648 344.612ZM415.083 344.612C415.083 343.736 415.029 342.906 414.922 342.123C414.83 341.339 414.661 340.655 414.415 340.072C414.184 339.488 413.87 339.027 413.47 338.689C413.071 338.335 412.579 338.159 411.995 338.159C411.411 338.159 410.92 338.335 410.52 338.689C410.121 339.027 409.798 339.488 409.552 340.072C409.322 340.655 409.153 341.339 409.045 342.123C408.953 342.906 408.907 343.736 408.907 344.612C408.907 345.487 408.953 346.317 409.045 347.101C409.153 347.884 409.322 348.568 409.552 349.152C409.798 349.735 410.121 350.204 410.52 350.557C410.92 350.895 411.411 351.064 411.995 351.064C412.579 351.064 413.071 350.895 413.47 350.557C413.87 350.204 414.184 349.735 414.415 349.152C414.661 348.568 414.83 347.884 414.922 347.101C415.029 346.317 415.083 345.487 415.083 344.612ZM422.883 351.364C422.883 351.779 422.745 352.14 422.468 352.447C422.192 352.754 421.815 352.908 421.339 352.908C420.863 352.908 420.486 352.754 420.21 352.447C419.933 352.14 419.795 351.779 419.795 351.364C419.795 350.949 419.933 350.588 420.21 350.281C420.486 349.974 420.863 349.82 421.339 349.82C421.815 349.82 422.192 349.974 422.468 350.281C422.745 350.588 422.883 350.949 422.883 351.364ZM422.883 342.169C422.883 342.584 422.745 342.945 422.468 343.252C422.192 343.559 421.815 343.713 421.339 343.713C420.863 343.713 420.486 343.559 420.21 343.252C419.933 342.945 419.795 342.584 419.795 342.169C419.795 341.754 419.933 341.393 420.21 341.086C420.486 340.778 420.863 340.625 421.339 340.625C421.815 340.625 422.192 340.778 422.468 341.086C422.745 341.393 422.883 341.754 422.883 342.169ZM429.384 351.041C430.752 351.041 431.727 350.773 432.311 350.235C432.91 349.697 433.21 348.975 433.21 348.068C433.21 347.485 433.087 346.993 432.841 346.594C432.595 346.194 432.273 345.879 431.873 345.649C431.474 345.403 431.005 345.234 430.467 345.142C429.945 345.034 429.407 344.98 428.854 344.98H428.301V343.229H429.062C429.446 343.229 429.838 343.19 430.237 343.114C430.652 343.037 431.028 342.899 431.366 342.699C431.704 342.499 431.981 342.23 432.196 341.892C432.411 341.539 432.519 341.101 432.519 340.579C432.519 340.148 432.442 339.78 432.288 339.472C432.134 339.165 431.927 338.912 431.666 338.712C431.42 338.512 431.128 338.374 430.79 338.297C430.467 338.205 430.122 338.159 429.753 338.159C429.016 338.159 428.386 338.266 427.863 338.481C427.356 338.696 426.926 338.919 426.573 339.15L425.743 337.513C425.927 337.391 426.158 337.26 426.434 337.122C426.726 336.968 427.049 336.83 427.402 336.707C427.756 336.584 428.132 336.484 428.532 336.407C428.946 336.315 429.377 336.269 429.822 336.269C430.667 336.269 431.397 336.377 432.012 336.592C432.626 336.791 433.133 337.083 433.533 337.467C433.932 337.836 434.232 338.282 434.431 338.804C434.631 339.311 434.731 339.864 434.731 340.463C434.731 341.293 434.493 342.007 434.017 342.607C433.54 343.19 432.964 343.636 432.288 343.943C432.703 344.066 433.102 344.243 433.486 344.473C433.871 344.704 434.201 344.996 434.477 345.349C434.769 345.702 435 346.11 435.169 346.571C435.353 347.031 435.445 347.546 435.445 348.115C435.445 348.806 435.322 349.451 435.077 350.05C434.846 350.634 434.477 351.141 433.97 351.571C433.479 352.002 432.857 352.34 432.104 352.585C431.351 352.831 430.46 352.954 429.43 352.954C429.031 352.954 428.616 352.923 428.186 352.862C427.771 352.801 427.379 352.724 427.011 352.632C426.642 352.539 426.319 352.447 426.043 352.355C425.766 352.263 425.566 352.186 425.443 352.125L425.858 350.258C426.119 350.381 426.55 350.542 427.149 350.742C427.763 350.942 428.509 351.041 429.384 351.041ZM438.337 344.612C438.337 341.938 438.805 339.88 439.742 338.435C440.695 336.991 442.009 336.269 443.683 336.269C445.358 336.269 446.664 336.991 447.601 338.435C448.554 339.88 449.03 341.938 449.03 344.612C449.03 347.285 448.554 349.344 447.601 350.788C446.664 352.232 445.358 352.954 443.683 352.954C442.009 352.954 440.695 352.232 439.742 350.788C438.805 349.344 438.337 347.285 438.337 344.612ZM446.771 344.612C446.771 343.736 446.718 342.906 446.61 342.123C446.518 341.339 446.349 340.655 446.103 340.072C445.873 339.488 445.558 339.027 445.158 338.689C444.759 338.335 444.267 338.159 443.683 338.159C443.099 338.159 442.608 338.335 442.208 338.689C441.809 339.027 441.486 339.488 441.24 340.072C441.01 340.655 440.841 341.339 440.733 342.123C440.641 342.906 440.595 343.736 440.595 344.612C440.595 345.487 440.641 346.317 440.733 347.101C440.841 347.884 441.01 348.568 441.24 349.152C441.486 349.735 441.809 350.204 442.208 350.557C442.608 350.895 443.099 351.064 443.683 351.064C444.267 351.064 444.759 350.895 445.158 350.557C445.558 350.204 445.873 349.735 446.103 349.152C446.349 348.568 446.518 347.884 446.61 347.101C446.718 346.317 446.771 345.487 446.771 344.612ZM461.749 336.476C463.992 336.476 465.713 336.907 466.911 337.767C468.125 338.612 468.732 339.88 468.732 341.57C468.732 342.491 468.563 343.283 468.225 343.943C467.902 344.589 467.426 345.119 466.796 345.533C466.181 345.933 465.428 346.225 464.537 346.409C463.646 346.594 462.64 346.686 461.518 346.686H459.744V352.609H457.508V336.868C458.138 336.715 458.837 336.615 459.606 336.569C460.389 336.507 461.104 336.476 461.749 336.476ZM461.933 338.435C460.981 338.435 460.251 338.458 459.744 338.504V344.773H461.426C462.194 344.773 462.886 344.727 463.5 344.635C464.115 344.527 464.63 344.358 465.044 344.128C465.475 343.882 465.805 343.551 466.035 343.137C466.266 342.722 466.381 342.192 466.381 341.547C466.381 340.932 466.258 340.425 466.012 340.025C465.782 339.626 465.459 339.311 465.044 339.081C464.645 338.835 464.176 338.666 463.639 338.574C463.101 338.481 462.532 338.435 461.933 338.435ZM478.697 350.396C478.543 350.027 478.336 349.559 478.074 348.99C477.829 348.422 477.56 347.807 477.268 347.147C476.976 346.486 476.661 345.81 476.323 345.119C476 344.412 475.693 343.751 475.401 343.137C475.109 342.507 474.833 341.946 474.571 341.454C474.326 340.963 474.126 340.586 473.972 340.325C473.803 342.138 473.665 344.105 473.557 346.225C473.45 348.33 473.358 350.458 473.281 352.609H471.092C471.153 351.226 471.222 349.835 471.299 348.437C471.376 347.024 471.46 345.641 471.552 344.289C471.66 342.922 471.768 341.593 471.875 340.302C471.998 339.011 472.129 337.79 472.267 336.638H474.226C474.641 337.314 475.086 338.113 475.562 339.035C476.039 339.956 476.515 340.924 476.991 341.938C477.468 342.937 477.929 343.943 478.374 344.957C478.82 345.956 479.227 346.87 479.595 347.7C479.964 346.87 480.371 345.956 480.817 344.957C481.262 343.943 481.723 342.937 482.2 341.938C482.676 340.924 483.152 339.956 483.629 339.035C484.105 338.113 484.55 337.314 484.965 336.638H486.924C487.446 341.785 487.838 347.108 488.099 352.609H485.91C485.833 350.458 485.741 348.33 485.634 346.225C485.526 344.105 485.388 342.138 485.219 340.325C485.065 340.586 484.858 340.963 484.596 341.454C484.351 341.946 484.082 342.507 483.79 343.137C483.498 343.751 483.183 344.412 482.845 345.119C482.522 345.81 482.215 346.486 481.923 347.147C481.631 347.807 481.355 348.422 481.093 348.99C480.848 349.559 480.648 350.027 480.494 350.396H478.697Z" fill="white" fill-opacity="0.8"/>
<rect x="207.401" y="416.587" width="468.599" height="138.275" rx="30.7278" fill="#34B5EE"/>
<rect x="84.4922" y="197.651" width="101.046" height="37.3639" rx="18.682" fill="#167EFB"/>
<path d="M96.9754 216.669C96.9754 214.442 97.3659 212.726 98.1469 211.522C98.9407 210.319 100.035 209.717 101.431 209.717C102.826 209.717 103.915 210.319 104.696 211.522C105.49 212.726 105.886 214.442 105.886 216.669C105.886 218.897 105.49 220.613 104.696 221.816C103.915 223.02 102.826 223.621 101.431 223.621C100.035 223.621 98.9407 223.02 98.1469 221.816C97.3659 220.613 96.9754 218.897 96.9754 216.669ZM104.004 216.669C104.004 215.939 103.96 215.248 103.87 214.595C103.793 213.942 103.652 213.372 103.447 212.886C103.255 212.399 102.993 212.015 102.66 211.734C102.327 211.439 101.917 211.292 101.431 211.292C100.944 211.292 100.535 211.439 100.202 211.734C99.8689 212.015 99.6001 212.399 99.3952 212.886C99.2031 213.372 99.0623 213.942 98.9727 214.595C98.8959 215.248 98.8575 215.939 98.8575 216.669C98.8575 217.399 98.8959 218.09 98.9727 218.743C99.0623 219.396 99.2031 219.966 99.3952 220.453C99.6001 220.939 99.8689 221.33 100.202 221.624C100.535 221.906 100.944 222.047 101.431 222.047C101.917 222.047 102.327 221.906 102.66 221.624C102.993 221.33 103.255 220.939 103.447 220.453C103.652 219.966 103.793 219.396 103.87 218.743C103.96 218.09 104.004 217.399 104.004 216.669ZM116.631 219.876C116.631 220.414 116.535 220.914 116.343 221.374C116.163 221.823 115.888 222.219 115.517 222.565C115.158 222.898 114.704 223.154 114.153 223.333C113.603 223.525 112.969 223.621 112.252 223.621C111.42 223.621 110.722 223.506 110.159 223.276C109.608 223.032 109.166 222.732 108.834 222.373C108.501 222.015 108.264 221.624 108.123 221.202C107.982 220.766 107.912 220.357 107.912 219.973C107.912 219.601 107.969 219.249 108.085 218.916C108.213 218.571 108.373 218.25 108.565 217.956C108.769 217.662 109 217.399 109.256 217.169C109.525 216.925 109.807 216.714 110.101 216.535C108.846 215.818 108.219 214.762 108.219 213.366C108.219 212.88 108.315 212.419 108.507 211.983C108.699 211.535 108.968 211.145 109.314 210.812C109.672 210.479 110.101 210.216 110.6 210.024C111.1 209.82 111.657 209.717 112.271 209.717C112.988 209.717 113.603 209.826 114.115 210.044C114.627 210.261 115.043 210.543 115.363 210.889C115.696 211.221 115.933 211.593 116.074 212.002C116.227 212.412 116.304 212.809 116.304 213.193C116.304 213.564 116.247 213.917 116.131 214.249C116.029 214.57 115.882 214.87 115.69 215.152C115.51 215.434 115.299 215.683 115.056 215.901C114.825 216.119 114.582 216.311 114.326 216.477C115.837 217.194 116.605 218.327 116.631 219.876ZM109.717 219.992C109.717 220.222 109.755 220.465 109.832 220.722C109.922 220.965 110.069 221.195 110.274 221.413C110.479 221.618 110.741 221.791 111.061 221.931C111.381 222.072 111.785 222.143 112.271 222.143C112.706 222.143 113.084 222.079 113.404 221.951C113.737 221.823 114.006 221.663 114.211 221.47C114.416 221.266 114.569 221.035 114.672 220.779C114.774 220.523 114.825 220.261 114.825 219.992C114.825 219.582 114.749 219.224 114.595 218.916C114.441 218.609 114.217 218.34 113.923 218.11C113.641 217.879 113.295 217.687 112.886 217.533C112.489 217.367 112.034 217.226 111.522 217.111C110.946 217.431 110.498 217.828 110.178 218.302C109.871 218.775 109.717 219.339 109.717 219.992ZM114.518 213.174C114.518 212.982 114.473 212.771 114.384 212.54C114.307 212.31 114.179 212.099 114 211.906C113.82 211.702 113.59 211.535 113.308 211.407C113.027 211.266 112.681 211.196 112.271 211.196C111.861 211.196 111.509 211.26 111.215 211.388C110.933 211.516 110.703 211.682 110.524 211.887C110.344 212.079 110.21 212.297 110.12 212.54C110.043 212.771 110.005 213.001 110.005 213.232C110.005 213.513 110.056 213.795 110.159 214.077C110.261 214.358 110.421 214.621 110.639 214.864C110.856 215.107 111.138 215.325 111.484 215.517C111.842 215.709 112.265 215.863 112.751 215.978C113.289 215.658 113.718 215.287 114.038 214.864C114.358 214.429 114.518 213.865 114.518 213.174ZM121.345 222.296C121.345 222.642 121.229 222.943 120.999 223.199C120.768 223.455 120.455 223.583 120.058 223.583C119.661 223.583 119.347 223.455 119.117 223.199C118.886 222.943 118.771 222.642 118.771 222.296C118.771 221.951 118.886 221.65 119.117 221.394C119.347 221.138 119.661 221.01 120.058 221.01C120.455 221.01 120.768 221.138 120.999 221.394C121.229 221.65 121.345 221.951 121.345 222.296ZM121.345 214.634C121.345 214.979 121.229 215.28 120.999 215.536C120.768 215.792 120.455 215.92 120.058 215.92C119.661 215.92 119.347 215.792 119.117 215.536C118.886 215.28 118.771 214.979 118.771 214.634C118.771 214.288 118.886 213.987 119.117 213.731C119.347 213.475 119.661 213.347 120.058 213.347C120.455 213.347 120.768 213.475 120.999 213.731C121.229 213.987 121.345 214.288 121.345 214.634ZM131.391 213.424C131.391 213.885 131.295 214.333 131.102 214.768C130.923 215.19 130.68 215.613 130.373 216.036C130.065 216.445 129.72 216.855 129.336 217.265C128.952 217.662 128.567 218.052 128.183 218.436C127.966 218.654 127.71 218.91 127.415 219.204C127.133 219.499 126.865 219.806 126.609 220.126C126.352 220.446 126.135 220.754 125.956 221.048C125.789 221.342 125.706 221.599 125.706 221.816H131.832V223.333H123.766C123.753 223.257 123.747 223.18 123.747 223.103C123.747 223.026 123.747 222.956 123.747 222.892C123.747 222.29 123.843 221.733 124.035 221.221C124.24 220.696 124.502 220.203 124.822 219.742C125.143 219.281 125.501 218.846 125.898 218.436C126.295 218.026 126.685 217.63 127.069 217.245C127.39 216.938 127.69 216.637 127.972 216.343C128.267 216.036 128.523 215.735 128.74 215.44C128.971 215.133 129.15 214.819 129.278 214.499C129.419 214.179 129.489 213.84 129.489 213.481C129.489 213.097 129.425 212.771 129.297 212.502C129.182 212.233 129.022 212.009 128.817 211.83C128.612 211.65 128.369 211.522 128.087 211.446C127.818 211.356 127.53 211.311 127.223 211.311C126.852 211.311 126.513 211.362 126.205 211.465C125.898 211.567 125.623 211.689 125.379 211.83C125.136 211.958 124.931 212.099 124.765 212.252C124.598 212.393 124.47 212.502 124.381 212.579L123.497 211.311C123.613 211.183 123.785 211.029 124.016 210.85C124.246 210.658 124.522 210.479 124.842 210.312C125.162 210.146 125.52 210.005 125.917 209.89C126.314 209.775 126.743 209.717 127.204 209.717C128.599 209.717 129.643 210.044 130.334 210.697C131.038 211.337 131.391 212.246 131.391 213.424ZM134.222 216.669C134.222 214.442 134.613 212.726 135.394 211.522C136.188 210.319 137.282 209.717 138.678 209.717C140.073 209.717 141.162 210.319 141.943 211.522C142.737 212.726 143.133 214.442 143.133 216.669C143.133 218.897 142.737 220.613 141.943 221.816C141.162 223.02 140.073 223.621 138.678 223.621C137.282 223.621 136.188 223.02 135.394 221.816C134.613 220.613 134.222 218.897 134.222 216.669ZM141.251 216.669C141.251 215.939 141.207 215.248 141.117 214.595C141.04 213.942 140.899 213.372 140.694 212.886C140.502 212.399 140.24 212.015 139.907 211.734C139.574 211.439 139.164 211.292 138.678 211.292C138.191 211.292 137.782 211.439 137.449 211.734C137.116 212.015 136.847 212.399 136.642 212.886C136.45 213.372 136.309 213.942 136.22 214.595C136.143 215.248 136.104 215.939 136.104 216.669C136.104 217.399 136.143 218.09 136.22 218.743C136.309 219.396 136.45 219.966 136.642 220.453C136.847 220.939 137.116 221.33 137.449 221.624C137.782 221.906 138.191 222.047 138.678 222.047C139.164 222.047 139.574 221.906 139.907 221.624C140.24 221.33 140.502 220.939 140.694 220.453C140.899 219.966 141.04 219.396 141.117 218.743C141.207 218.09 141.251 217.399 141.251 216.669ZM154.646 223.333C154.428 222.757 154.223 222.194 154.031 221.643C153.839 221.08 153.641 220.51 153.436 219.934H147.406L146.196 223.333H144.256C144.768 221.925 145.248 220.625 145.696 219.435C146.145 218.231 146.58 217.092 147.002 216.016C147.438 214.941 147.867 213.917 148.289 212.944C148.712 211.958 149.153 210.985 149.614 210.024H151.323C151.784 210.985 152.226 211.958 152.649 212.944C153.071 213.917 153.494 214.941 153.916 216.016C154.351 217.092 154.793 218.231 155.241 219.435C155.689 220.625 156.169 221.925 156.682 223.333H154.646ZM152.898 218.398C152.489 217.284 152.079 216.208 151.669 215.171C151.272 214.121 150.856 213.116 150.421 212.156C149.973 213.116 149.544 214.121 149.134 215.171C148.737 216.208 148.34 217.284 147.943 218.398H152.898ZM164.461 221.49C164.333 221.182 164.16 220.792 163.943 220.318C163.738 219.844 163.514 219.332 163.271 218.782C163.027 218.231 162.765 217.668 162.483 217.092C162.214 216.503 161.958 215.952 161.715 215.44C161.472 214.915 161.241 214.448 161.024 214.038C160.819 213.629 160.652 213.315 160.524 213.097C160.383 214.608 160.268 216.247 160.179 218.014C160.089 219.768 160.012 221.541 159.948 223.333H158.124C158.175 222.181 158.232 221.022 158.296 219.857C158.36 218.679 158.431 217.527 158.508 216.4C158.597 215.261 158.687 214.153 158.777 213.078C158.879 212.002 158.988 210.985 159.103 210.024H160.735C161.081 210.588 161.452 211.253 161.849 212.022C162.246 212.79 162.643 213.596 163.04 214.442C163.437 215.274 163.821 216.112 164.192 216.957C164.564 217.79 164.903 218.551 165.21 219.243C165.517 218.551 165.857 217.79 166.228 216.957C166.599 216.112 166.983 215.274 167.38 214.442C167.777 213.596 168.174 212.79 168.571 212.022C168.968 211.253 169.339 210.588 169.685 210.024H171.317C171.753 214.313 172.079 218.75 172.297 223.333H170.472C170.408 221.541 170.332 219.768 170.242 218.014C170.152 216.247 170.037 214.608 169.896 213.097C169.768 213.315 169.595 213.629 169.378 214.038C169.173 214.448 168.949 214.915 168.706 215.44C168.462 215.952 168.2 216.503 167.918 217.092C167.649 217.668 167.393 218.231 167.15 218.782C166.907 219.332 166.676 219.844 166.459 220.318C166.254 220.792 166.087 221.182 165.959 221.49H164.461Z" fill="white"/>
<circle cx="184.578" cy="216.333" r="5.76147" fill="white" stroke="#167EFB" stroke-width="1.92049"/>
<line x1="189.379" y1="215.373" x2="654.878" y2="215.373" stroke="#167EFB" stroke-width="1.92049"/>
</g>
<defs>
<clipPath id="clip0_2_1021">
<rect width="724" height="440" rx="24" fill="white"/>
</clipPath>
</defs>
</svg>
