<svg width="32" height="33" viewBox="0 0 32 33" fill="none" xmlns="http://www.w3.org/2000/svg">
<path d="M28.22 8.42362C27.6778 8.13266 26.5404 7.82848 24.993 8.91297L23.0489 10.2884C22.9034 6.17528 21.1179 4.56177 16.78 4.56177H8.84463C4.3215 4.56177 2.5625 6.32076 2.5625 10.8439V21.4243C2.5625 24.4662 4.21569 27.7065 8.84463 27.7065H16.78C21.1179 27.7065 22.9034 26.0929 23.0489 21.9798L24.993 23.3553C25.813 23.9372 26.5272 24.1223 27.0959 24.1223C27.5852 24.1223 27.9688 23.9769 28.22 23.8446C28.7623 23.5669 29.6749 22.813 29.6749 20.9218V11.3465C29.6749 9.45522 28.7623 8.70136 28.22 8.42362ZM14.7961 15.3141C13.4339 15.3141 12.3097 14.2032 12.3097 12.8277C12.3097 11.4523 13.4339 10.3413 14.7961 10.3413C16.1584 10.3413 17.2825 11.4523 17.2825 12.8277C17.2825 14.2032 16.1584 15.3141 14.7961 15.3141Z" fill="#167EFB"/>
</svg>
